<svg width="404" height="128" viewBox="0 0 404 128" fill="none" xmlns="http://www.w3.org/2000/svg">
<mask id="path-1-outside-1_658_37" maskUnits="userSpaceOnUse" x="37.0615" y="60" width="346" height="52" fill="black">
<rect fill="white" x="37.0615" y="60" width="346" height="52"/>
<path d="M46.2949 107.54C45.0549 107.54 44.0149 107.26 43.1749 106.7C42.3349 106.1 41.8149 105.3 41.6149 104.3C41.4149 103.26 41.5949 102.1 42.1549 100.82L57.0949 68.66C57.8149 67.1 58.6949 65.96 59.7349 65.24C60.8149 64.52 62.0349 64.16 63.3949 64.16C64.7549 64.16 65.9349 64.52 66.9349 65.24C67.9749 65.96 68.8749 67.1 69.6349 68.66L84.5749 100.82C85.2149 102.1 85.4349 103.26 85.2349 104.3C85.0749 105.34 84.5749 106.14 83.7349 106.7C82.9349 107.26 81.9349 107.54 80.7349 107.54C79.1349 107.54 77.8949 107.18 77.0149 106.46C76.1749 105.74 75.4149 104.58 74.7349 102.98L71.4949 95.36L75.6949 98.42H50.9749L55.2349 95.36L51.9949 102.98C51.2749 104.58 50.5349 105.74 49.7749 106.46C49.0149 107.18 47.8549 107.54 46.2949 107.54ZM63.2749 76.22L56.3149 92.84L54.6349 89.96H72.0949L70.4149 92.84L63.3949 76.22H63.2749ZM91.3966 107.54C90.1566 107.54 89.1166 107.26 88.2766 106.7C87.4366 106.1 86.9166 105.3 86.7166 104.3C86.5166 103.26 86.6966 102.1 87.2566 100.82L102.197 68.66C102.917 67.1 103.797 65.96 104.837 65.24C105.917 64.52 107.137 64.16 108.497 64.16C109.857 64.16 111.037 64.52 112.037 65.24C113.077 65.96 113.977 67.1 114.737 68.66L129.677 100.82C130.317 102.1 130.537 103.26 130.337 104.3C130.177 105.34 129.677 106.14 128.837 106.7C128.037 107.26 127.037 107.54 125.837 107.54C124.237 107.54 122.997 107.18 122.117 106.46C121.277 105.74 120.517 104.58 119.837 102.98L116.597 95.36L120.797 98.42H96.0766L100.337 95.36L97.0966 102.98C96.3766 104.58 95.6366 105.74 94.8766 106.46C94.1166 107.18 92.9566 107.54 91.3966 107.54ZM108.377 76.22L101.417 92.84L99.7366 89.96H117.197L115.517 92.84L108.497 76.22H108.377ZM154.824 107.66C150.144 107.66 146.124 106.76 142.764 104.96C139.404 103.16 136.824 100.62 135.024 97.34C133.264 94.06 132.384 90.22 132.384 85.82C132.384 82.54 132.884 79.56 133.884 76.88C134.924 74.2 136.404 71.9 138.324 69.98C140.284 68.06 142.644 66.6 145.404 65.6C148.204 64.56 151.344 64.04 154.824 64.04C156.664 64.04 158.564 64.26 160.524 64.7C162.524 65.1 164.284 65.72 165.804 66.56C166.924 67.16 167.704 67.92 168.144 68.84C168.584 69.76 168.724 70.7 168.564 71.66C168.444 72.62 168.104 73.48 167.544 74.24C166.984 75 166.264 75.52 165.384 75.8C164.504 76.04 163.544 75.9 162.504 75.38C161.304 74.82 160.104 74.4 158.904 74.12C157.744 73.8 156.524 73.64 155.244 73.64C152.764 73.64 150.684 74.12 149.004 75.08C147.364 76 146.124 77.36 145.284 79.16C144.444 80.96 144.024 83.18 144.024 85.82C144.024 88.46 144.444 90.7 145.284 92.54C146.124 94.34 147.364 95.72 149.004 96.68C150.684 97.6 152.764 98.06 155.244 98.06C156.284 98.06 157.404 97.94 158.604 97.7C159.804 97.42 160.984 97 162.144 96.44C163.344 95.92 164.404 95.78 165.324 96.02C166.284 96.26 167.044 96.74 167.604 97.46C168.204 98.18 168.584 99.02 168.744 99.98C168.904 100.9 168.764 101.82 168.324 102.74C167.924 103.66 167.204 104.4 166.164 104.96C164.764 105.8 163.024 106.46 160.944 106.94C158.904 107.42 156.864 107.66 154.824 107.66ZM278.315 107.54C276.555 107.54 275.195 107.06 274.235 106.1C273.275 105.1 272.795 103.72 272.795 101.96V73.7H263.375C261.895 73.7 260.755 73.32 259.955 72.56C259.195 71.76 258.815 70.64 258.815 69.2C258.815 67.72 259.195 66.6 259.955 65.84C260.755 65.08 261.895 64.7 263.375 64.7H293.255C294.735 64.7 295.855 65.08 296.615 65.84C297.415 66.6 297.815 67.72 297.815 69.2C297.815 70.64 297.415 71.76 296.615 72.56C295.855 73.32 294.735 73.7 293.255 73.7H283.835V101.96C283.835 103.72 283.375 105.1 282.455 106.1C281.535 107.06 280.155 107.54 278.315 107.54ZM305.583 107.66C303.303 107.66 301.283 107.24 299.523 106.4C297.803 105.56 296.443 104.42 295.443 102.98C294.483 101.5 294.003 99.82 294.003 97.94C294.003 95.78 294.563 94.08 295.683 92.84C296.803 91.6 298.603 90.72 301.083 90.2C303.563 89.64 306.863 89.36 310.983 89.36H314.283V94.4H310.983C309.423 94.4 308.123 94.52 307.083 94.76C306.083 94.96 305.343 95.3 304.863 95.78C304.383 96.22 304.143 96.8 304.143 97.52C304.143 98.44 304.463 99.2 305.103 99.8C305.783 100.4 306.743 100.7 307.983 100.7C308.983 100.7 309.863 100.48 310.623 100.04C311.423 99.6 312.063 99 312.543 98.24C313.023 97.44 313.263 96.52 313.263 95.48V88.52C313.263 87.08 312.883 86.06 312.123 85.46C311.403 84.86 310.143 84.56 308.343 84.56C307.383 84.56 306.303 84.68 305.103 84.92C303.903 85.12 302.563 85.5 301.083 86.06C300.003 86.46 299.083 86.52 298.323 86.24C297.563 85.96 296.963 85.48 296.523 84.8C296.123 84.12 295.923 83.38 295.923 82.58C295.963 81.78 296.223 81.02 296.703 80.3C297.223 79.58 298.003 79.02 299.043 78.62C300.963 77.9 302.723 77.42 304.323 77.18C305.963 76.94 307.463 76.82 308.823 76.82C312.103 76.82 314.803 77.3 316.923 78.26C319.083 79.18 320.683 80.62 321.723 82.58C322.803 84.5 323.343 86.98 323.343 90.02V102.14C323.343 103.9 322.923 105.24 322.083 106.16C321.243 107.08 320.023 107.54 318.423 107.54C316.783 107.54 315.523 107.08 314.643 106.16C313.803 105.24 313.383 103.9 313.383 102.14V100.58L313.743 101.42C313.543 102.7 313.083 103.8 312.363 104.72C311.643 105.64 310.703 106.36 309.543 106.88C308.383 107.4 307.063 107.66 305.583 107.66ZM339.984 107.66C336.144 107.66 333.304 106.64 331.464 104.6C329.664 102.52 328.764 99.4 328.764 95.24V69.56C328.764 67.8 329.224 66.46 330.144 65.54C331.064 64.62 332.364 64.16 334.044 64.16C335.764 64.16 337.084 64.62 338.004 65.54C338.964 66.46 339.444 67.8 339.444 69.56V94.88C339.444 96.36 339.724 97.44 340.284 98.12C340.884 98.8 341.644 99.14 342.564 99.14C342.844 99.14 343.124 99.12 343.404 99.08C343.724 99 344.064 98.94 344.424 98.9C345.104 98.9 345.604 99.16 345.924 99.68C346.284 100.2 346.464 101.26 346.464 102.86C346.464 104.26 346.184 105.32 345.624 106.04C345.064 106.72 344.204 107.16 343.044 107.36C342.724 107.4 342.264 107.46 341.664 107.54C341.064 107.62 340.504 107.66 339.984 107.66ZM354.243 107.54C352.563 107.54 351.263 107.08 350.343 106.16C349.423 105.24 348.963 103.9 348.963 102.14V69.56C348.963 67.8 349.423 66.46 350.343 65.54C351.263 64.62 352.563 64.16 354.243 64.16C355.963 64.16 357.283 64.62 358.203 65.54C359.163 66.46 359.643 67.8 359.643 69.56V89.36H359.763L367.083 80.48C368.083 79.28 369.003 78.4 369.843 77.84C370.723 77.24 371.903 76.94 373.383 76.94C374.863 76.94 376.003 77.3 376.803 78.02C377.603 78.74 378.023 79.64 378.063 80.72C378.103 81.8 377.663 82.88 376.743 83.96L368.823 93.32V89.6L377.703 100.76C378.583 101.88 378.943 102.98 378.783 104.06C378.623 105.1 378.103 105.94 377.223 106.58C376.383 107.22 375.303 107.54 373.983 107.54C372.383 107.54 371.103 107.26 370.143 106.7C369.183 106.1 368.223 105.18 367.263 103.94L359.763 94.7H359.643V102.14C359.643 105.74 357.843 107.54 354.243 107.54Z"/>
<path d="M187.363 107.66C183.763 107.66 180.643 107.04 178.003 105.8C175.403 104.52 173.403 102.72 172.003 100.4C170.603 98.08 169.903 95.34 169.903 92.18C169.903 89.14 170.563 86.48 171.883 84.2C173.243 81.88 175.083 80.08 177.403 78.8C179.763 77.48 182.443 76.82 185.443 76.82C187.643 76.82 189.643 77.18 191.443 77.9C193.243 78.58 194.783 79.6 196.063 80.96C197.343 82.28 198.303 83.88 198.943 85.76C199.623 87.64 199.963 89.74 199.963 92.06C199.963 92.86 199.743 93.46 199.303 93.86C198.863 94.22 198.163 94.4 197.203 94.4H178.843V89.36H192.163L191.203 90.14C191.203 88.66 191.003 87.46 190.603 86.54C190.203 85.62 189.603 84.92 188.803 84.44C188.043 83.96 187.083 83.72 185.923 83.72C184.683 83.72 183.603 84.02 182.683 84.62C181.803 85.18 181.123 86.02 180.643 87.14C180.163 88.26 179.923 89.66 179.923 91.34V91.88C179.923 94.72 180.543 96.76 181.783 98C183.063 99.2 185.023 99.8 187.663 99.8C188.543 99.8 189.543 99.7 190.663 99.5C191.823 99.26 192.923 98.94 193.963 98.54C195.003 98.14 195.903 98.08 196.663 98.36C197.423 98.6 198.003 99.04 198.403 99.68C198.843 100.28 199.083 100.98 199.123 101.78C199.163 102.54 198.983 103.3 198.583 104.06C198.183 104.78 197.523 105.34 196.603 105.74C195.203 106.38 193.703 106.86 192.103 107.18C190.543 107.5 188.963 107.66 187.363 107.66ZM215.664 107.66C213.904 107.66 212.104 107.52 210.264 107.24C208.464 107 206.824 106.54 205.344 105.86C204.344 105.46 203.624 104.92 203.184 104.24C202.784 103.56 202.584 102.84 202.584 102.08C202.624 101.32 202.844 100.64 203.244 100.04C203.684 99.4 204.244 98.96 204.924 98.72C205.644 98.44 206.444 98.46 207.324 98.78C209.004 99.38 210.504 99.82 211.824 100.1C213.184 100.34 214.484 100.46 215.724 100.46C217.204 100.46 218.264 100.26 218.904 99.86C219.544 99.42 219.864 98.86 219.864 98.18C219.864 97.58 219.644 97.12 219.204 96.8C218.804 96.48 218.224 96.26 217.464 96.14L210.804 95.06C208.324 94.62 206.404 93.72 205.044 92.36C203.684 90.96 203.004 89.14 203.004 86.9C203.004 84.82 203.584 83.04 204.744 81.56C205.944 80.04 207.564 78.88 209.604 78.08C211.684 77.24 214.064 76.82 216.744 76.82C218.544 76.82 220.184 76.96 221.664 77.24C223.144 77.48 224.584 77.94 225.984 78.62C226.864 78.98 227.484 79.5 227.844 80.18C228.204 80.86 228.344 81.58 228.264 82.34C228.184 83.06 227.924 83.74 227.484 84.38C227.084 84.98 226.524 85.4 225.804 85.64C225.084 85.84 224.244 85.78 223.284 85.46C221.964 84.94 220.784 84.56 219.744 84.32C218.744 84.08 217.804 83.96 216.924 83.96C215.284 83.96 214.124 84.18 213.444 84.62C212.764 85.06 212.424 85.62 212.424 86.3C212.424 86.82 212.604 87.26 212.964 87.62C213.324 87.94 213.884 88.16 214.644 88.28L221.304 89.42C223.864 89.82 225.824 90.7 227.184 92.06C228.584 93.38 229.284 95.18 229.284 97.46C229.284 100.7 228.044 103.22 225.564 105.02C223.084 106.78 219.784 107.66 215.664 107.66ZM244.77 107.66C243.01 107.66 241.21 107.52 239.37 107.24C237.57 107 235.93 106.54 234.45 105.86C233.45 105.46 232.73 104.92 232.29 104.24C231.89 103.56 231.69 102.84 231.69 102.08C231.73 101.32 231.95 100.64 232.35 100.04C232.79 99.4 233.35 98.96 234.03 98.72C234.75 98.44 235.55 98.46 236.43 98.78C238.11 99.38 239.61 99.82 240.93 100.1C242.29 100.34 243.59 100.46 244.83 100.46C246.31 100.46 247.37 100.26 248.01 99.86C248.65 99.42 248.97 98.86 248.97 98.18C248.97 97.58 248.75 97.12 248.31 96.8C247.91 96.48 247.33 96.26 246.57 96.14L239.91 95.06C237.43 94.62 235.51 93.72 234.15 92.36C232.79 90.96 232.11 89.14 232.11 86.9C232.11 84.82 232.69 83.04 233.85 81.56C235.05 80.04 236.67 78.88 238.71 78.08C240.79 77.24 243.17 76.82 245.85 76.82C247.65 76.82 249.29 76.96 250.77 77.24C252.25 77.48 253.69 77.94 255.09 78.62C255.97 78.98 256.59 79.5 256.95 80.18C257.31 80.86 257.45 81.58 257.37 82.34C257.29 83.06 257.03 83.74 256.59 84.38C256.19 84.98 255.63 85.4 254.91 85.64C254.19 85.84 253.35 85.78 252.39 85.46C251.07 84.94 249.89 84.56 248.85 84.32C247.85 84.08 246.91 83.96 246.03 83.96C244.39 83.96 243.23 84.18 242.55 84.62C241.87 85.06 241.53 85.62 241.53 86.3C241.53 86.82 241.71 87.26 242.07 87.62C242.43 87.94 242.99 88.16 243.75 88.28L250.41 89.42C252.97 89.82 254.93 90.7 256.29 92.06C257.69 93.38 258.39 95.18 258.39 97.46C258.39 100.7 257.15 103.22 254.67 105.02C252.19 106.78 248.89 107.66 244.77 107.66Z"/>
</mask>
<path d="M46.2949 107.54C45.0549 107.54 44.0149 107.26 43.1749 106.7C42.3349 106.1 41.8149 105.3 41.6149 104.3C41.4149 103.26 41.5949 102.1 42.1549 100.82L57.0949 68.66C57.8149 67.1 58.6949 65.96 59.7349 65.24C60.8149 64.52 62.0349 64.16 63.3949 64.16C64.7549 64.16 65.9349 64.52 66.9349 65.24C67.9749 65.96 68.8749 67.1 69.6349 68.66L84.5749 100.82C85.2149 102.1 85.4349 103.26 85.2349 104.3C85.0749 105.34 84.5749 106.14 83.7349 106.7C82.9349 107.26 81.9349 107.54 80.7349 107.54C79.1349 107.54 77.8949 107.18 77.0149 106.46C76.1749 105.74 75.4149 104.58 74.7349 102.98L71.4949 95.36L75.6949 98.42H50.9749L55.2349 95.36L51.9949 102.98C51.2749 104.58 50.5349 105.74 49.7749 106.46C49.0149 107.18 47.8549 107.54 46.2949 107.54ZM63.2749 76.22L56.3149 92.84L54.6349 89.96H72.0949L70.4149 92.84L63.3949 76.22H63.2749ZM91.3966 107.54C90.1566 107.54 89.1166 107.26 88.2766 106.7C87.4366 106.1 86.9166 105.3 86.7166 104.3C86.5166 103.26 86.6966 102.1 87.2566 100.82L102.197 68.66C102.917 67.1 103.797 65.96 104.837 65.24C105.917 64.52 107.137 64.16 108.497 64.16C109.857 64.16 111.037 64.52 112.037 65.24C113.077 65.96 113.977 67.1 114.737 68.66L129.677 100.82C130.317 102.1 130.537 103.26 130.337 104.3C130.177 105.34 129.677 106.14 128.837 106.7C128.037 107.26 127.037 107.54 125.837 107.54C124.237 107.54 122.997 107.18 122.117 106.46C121.277 105.74 120.517 104.58 119.837 102.98L116.597 95.36L120.797 98.42H96.0766L100.337 95.36L97.0966 102.98C96.3766 104.58 95.6366 105.74 94.8766 106.46C94.1166 107.18 92.9566 107.54 91.3966 107.54ZM108.377 76.22L101.417 92.84L99.7366 89.96H117.197L115.517 92.84L108.497 76.22H108.377ZM154.824 107.66C150.144 107.66 146.124 106.76 142.764 104.96C139.404 103.16 136.824 100.62 135.024 97.34C133.264 94.06 132.384 90.22 132.384 85.82C132.384 82.54 132.884 79.56 133.884 76.88C134.924 74.2 136.404 71.9 138.324 69.98C140.284 68.06 142.644 66.6 145.404 65.6C148.204 64.56 151.344 64.04 154.824 64.04C156.664 64.04 158.564 64.26 160.524 64.7C162.524 65.1 164.284 65.72 165.804 66.56C166.924 67.16 167.704 67.92 168.144 68.84C168.584 69.76 168.724 70.7 168.564 71.66C168.444 72.62 168.104 73.48 167.544 74.24C166.984 75 166.264 75.52 165.384 75.8C164.504 76.04 163.544 75.9 162.504 75.38C161.304 74.82 160.104 74.4 158.904 74.12C157.744 73.8 156.524 73.64 155.244 73.64C152.764 73.64 150.684 74.12 149.004 75.08C147.364 76 146.124 77.36 145.284 79.16C144.444 80.96 144.024 83.18 144.024 85.82C144.024 88.46 144.444 90.7 145.284 92.54C146.124 94.34 147.364 95.72 149.004 96.68C150.684 97.6 152.764 98.06 155.244 98.06C156.284 98.06 157.404 97.94 158.604 97.7C159.804 97.42 160.984 97 162.144 96.44C163.344 95.92 164.404 95.78 165.324 96.02C166.284 96.26 167.044 96.74 167.604 97.46C168.204 98.18 168.584 99.02 168.744 99.98C168.904 100.9 168.764 101.82 168.324 102.74C167.924 103.66 167.204 104.4 166.164 104.96C164.764 105.8 163.024 106.46 160.944 106.94C158.904 107.42 156.864 107.66 154.824 107.66ZM278.315 107.54C276.555 107.54 275.195 107.06 274.235 106.1C273.275 105.1 272.795 103.72 272.795 101.96V73.7H263.375C261.895 73.7 260.755 73.32 259.955 72.56C259.195 71.76 258.815 70.64 258.815 69.2C258.815 67.72 259.195 66.6 259.955 65.84C260.755 65.08 261.895 64.7 263.375 64.7H293.255C294.735 64.7 295.855 65.08 296.615 65.84C297.415 66.6 297.815 67.72 297.815 69.2C297.815 70.64 297.415 71.76 296.615 72.56C295.855 73.32 294.735 73.7 293.255 73.7H283.835V101.96C283.835 103.72 283.375 105.1 282.455 106.1C281.535 107.06 280.155 107.54 278.315 107.54ZM305.583 107.66C303.303 107.66 301.283 107.24 299.523 106.4C297.803 105.56 296.443 104.42 295.443 102.98C294.483 101.5 294.003 99.82 294.003 97.94C294.003 95.78 294.563 94.08 295.683 92.84C296.803 91.6 298.603 90.72 301.083 90.2C303.563 89.64 306.863 89.36 310.983 89.36H314.283V94.4H310.983C309.423 94.4 308.123 94.52 307.083 94.76C306.083 94.96 305.343 95.3 304.863 95.78C304.383 96.22 304.143 96.8 304.143 97.52C304.143 98.44 304.463 99.2 305.103 99.8C305.783 100.4 306.743 100.7 307.983 100.7C308.983 100.7 309.863 100.48 310.623 100.04C311.423 99.6 312.063 99 312.543 98.24C313.023 97.44 313.263 96.52 313.263 95.48V88.52C313.263 87.08 312.883 86.06 312.123 85.46C311.403 84.86 310.143 84.56 308.343 84.56C307.383 84.56 306.303 84.68 305.103 84.92C303.903 85.12 302.563 85.5 301.083 86.06C300.003 86.46 299.083 86.52 298.323 86.24C297.563 85.96 296.963 85.48 296.523 84.8C296.123 84.12 295.923 83.38 295.923 82.58C295.963 81.78 296.223 81.02 296.703 80.3C297.223 79.58 298.003 79.02 299.043 78.62C300.963 77.9 302.723 77.42 304.323 77.18C305.963 76.94 307.463 76.82 308.823 76.82C312.103 76.82 314.803 77.3 316.923 78.26C319.083 79.18 320.683 80.62 321.723 82.58C322.803 84.5 323.343 86.98 323.343 90.02V102.14C323.343 103.9 322.923 105.24 322.083 106.16C321.243 107.08 320.023 107.54 318.423 107.54C316.783 107.54 315.523 107.08 314.643 106.16C313.803 105.24 313.383 103.9 313.383 102.14V100.58L313.743 101.42C313.543 102.7 313.083 103.8 312.363 104.72C311.643 105.64 310.703 106.36 309.543 106.88C308.383 107.4 307.063 107.66 305.583 107.66ZM339.984 107.66C336.144 107.66 333.304 106.64 331.464 104.6C329.664 102.52 328.764 99.4 328.764 95.24V69.56C328.764 67.8 329.224 66.46 330.144 65.54C331.064 64.62 332.364 64.16 334.044 64.16C335.764 64.16 337.084 64.62 338.004 65.54C338.964 66.46 339.444 67.8 339.444 69.56V94.88C339.444 96.36 339.724 97.44 340.284 98.12C340.884 98.8 341.644 99.14 342.564 99.14C342.844 99.14 343.124 99.12 343.404 99.08C343.724 99 344.064 98.94 344.424 98.9C345.104 98.9 345.604 99.16 345.924 99.68C346.284 100.2 346.464 101.26 346.464 102.86C346.464 104.26 346.184 105.32 345.624 106.04C345.064 106.72 344.204 107.16 343.044 107.36C342.724 107.4 342.264 107.46 341.664 107.54C341.064 107.62 340.504 107.66 339.984 107.66ZM354.243 107.54C352.563 107.54 351.263 107.08 350.343 106.16C349.423 105.24 348.963 103.9 348.963 102.14V69.56C348.963 67.8 349.423 66.46 350.343 65.54C351.263 64.62 352.563 64.16 354.243 64.16C355.963 64.16 357.283 64.62 358.203 65.54C359.163 66.46 359.643 67.8 359.643 69.56V89.36H359.763L367.083 80.48C368.083 79.28 369.003 78.4 369.843 77.84C370.723 77.24 371.903 76.94 373.383 76.94C374.863 76.94 376.003 77.3 376.803 78.02C377.603 78.74 378.023 79.64 378.063 80.72C378.103 81.8 377.663 82.88 376.743 83.96L368.823 93.32V89.6L377.703 100.76C378.583 101.88 378.943 102.98 378.783 104.06C378.623 105.1 378.103 105.94 377.223 106.58C376.383 107.22 375.303 107.54 373.983 107.54C372.383 107.54 371.103 107.26 370.143 106.7C369.183 106.1 368.223 105.18 367.263 103.94L359.763 94.7H359.643V102.14C359.643 105.74 357.843 107.54 354.243 107.54Z" fill="#24C104"/>
<path d="M46.2949 107.54C45.0549 107.54 44.0149 107.26 43.1749 106.7C42.3349 106.1 41.8149 105.3 41.6149 104.3C41.4149 103.26 41.5949 102.1 42.1549 100.82L57.0949 68.66C57.8149 67.1 58.6949 65.96 59.7349 65.24C60.8149 64.52 62.0349 64.16 63.3949 64.16C64.7549 64.16 65.9349 64.52 66.9349 65.24C67.9749 65.96 68.8749 67.1 69.6349 68.66L84.5749 100.82C85.2149 102.1 85.4349 103.26 85.2349 104.3C85.0749 105.34 84.5749 106.14 83.7349 106.7C82.9349 107.26 81.9349 107.54 80.7349 107.54C79.1349 107.54 77.8949 107.18 77.0149 106.46C76.1749 105.74 75.4149 104.58 74.7349 102.98L71.4949 95.36L75.6949 98.42H50.9749L55.2349 95.36L51.9949 102.98C51.2749 104.58 50.5349 105.74 49.7749 106.46C49.0149 107.18 47.8549 107.54 46.2949 107.54ZM63.2749 76.22L56.3149 92.84L54.6349 89.96H72.0949L70.4149 92.84L63.3949 76.22H63.2749ZM91.3966 107.54C90.1566 107.54 89.1166 107.26 88.2766 106.7C87.4366 106.1 86.9166 105.3 86.7166 104.3C86.5166 103.26 86.6966 102.1 87.2566 100.82L102.197 68.66C102.917 67.1 103.797 65.96 104.837 65.24C105.917 64.52 107.137 64.16 108.497 64.16C109.857 64.16 111.037 64.52 112.037 65.24C113.077 65.96 113.977 67.1 114.737 68.66L129.677 100.82C130.317 102.1 130.537 103.26 130.337 104.3C130.177 105.34 129.677 106.14 128.837 106.7C128.037 107.26 127.037 107.54 125.837 107.54C124.237 107.54 122.997 107.18 122.117 106.46C121.277 105.74 120.517 104.58 119.837 102.98L116.597 95.36L120.797 98.42H96.0766L100.337 95.36L97.0966 102.98C96.3766 104.58 95.6366 105.74 94.8766 106.46C94.1166 107.18 92.9566 107.54 91.3966 107.54ZM108.377 76.22L101.417 92.84L99.7366 89.96H117.197L115.517 92.84L108.497 76.22H108.377ZM154.824 107.66C150.144 107.66 146.124 106.76 142.764 104.96C139.404 103.16 136.824 100.62 135.024 97.34C133.264 94.06 132.384 90.22 132.384 85.82C132.384 82.54 132.884 79.56 133.884 76.88C134.924 74.2 136.404 71.9 138.324 69.98C140.284 68.06 142.644 66.6 145.404 65.6C148.204 64.56 151.344 64.04 154.824 64.04C156.664 64.04 158.564 64.26 160.524 64.7C162.524 65.1 164.284 65.72 165.804 66.56C166.924 67.16 167.704 67.92 168.144 68.84C168.584 69.76 168.724 70.7 168.564 71.66C168.444 72.62 168.104 73.48 167.544 74.24C166.984 75 166.264 75.52 165.384 75.8C164.504 76.04 163.544 75.9 162.504 75.38C161.304 74.82 160.104 74.4 158.904 74.12C157.744 73.8 156.524 73.64 155.244 73.64C152.764 73.64 150.684 74.12 149.004 75.08C147.364 76 146.124 77.36 145.284 79.16C144.444 80.96 144.024 83.18 144.024 85.82C144.024 88.46 144.444 90.7 145.284 92.54C146.124 94.34 147.364 95.72 149.004 96.68C150.684 97.6 152.764 98.06 155.244 98.06C156.284 98.06 157.404 97.94 158.604 97.7C159.804 97.42 160.984 97 162.144 96.44C163.344 95.92 164.404 95.78 165.324 96.02C166.284 96.26 167.044 96.74 167.604 97.46C168.204 98.18 168.584 99.02 168.744 99.98C168.904 100.9 168.764 101.82 168.324 102.74C167.924 103.66 167.204 104.4 166.164 104.96C164.764 105.8 163.024 106.46 160.944 106.94C158.904 107.42 156.864 107.66 154.824 107.66ZM278.315 107.54C276.555 107.54 275.195 107.06 274.235 106.1C273.275 105.1 272.795 103.72 272.795 101.96V73.7H263.375C261.895 73.7 260.755 73.32 259.955 72.56C259.195 71.76 258.815 70.64 258.815 69.2C258.815 67.72 259.195 66.6 259.955 65.84C260.755 65.08 261.895 64.7 263.375 64.7H293.255C294.735 64.7 295.855 65.08 296.615 65.84C297.415 66.6 297.815 67.72 297.815 69.2C297.815 70.64 297.415 71.76 296.615 72.56C295.855 73.32 294.735 73.7 293.255 73.7H283.835V101.96C283.835 103.72 283.375 105.1 282.455 106.1C281.535 107.06 280.155 107.54 278.315 107.54ZM305.583 107.66C303.303 107.66 301.283 107.24 299.523 106.4C297.803 105.56 296.443 104.42 295.443 102.98C294.483 101.5 294.003 99.82 294.003 97.94C294.003 95.78 294.563 94.08 295.683 92.84C296.803 91.6 298.603 90.72 301.083 90.2C303.563 89.64 306.863 89.36 310.983 89.36H314.283V94.4H310.983C309.423 94.4 308.123 94.52 307.083 94.76C306.083 94.96 305.343 95.3 304.863 95.78C304.383 96.22 304.143 96.8 304.143 97.52C304.143 98.44 304.463 99.2 305.103 99.8C305.783 100.4 306.743 100.7 307.983 100.7C308.983 100.7 309.863 100.48 310.623 100.04C311.423 99.6 312.063 99 312.543 98.24C313.023 97.44 313.263 96.52 313.263 95.48V88.52C313.263 87.08 312.883 86.06 312.123 85.46C311.403 84.86 310.143 84.56 308.343 84.56C307.383 84.56 306.303 84.68 305.103 84.92C303.903 85.12 302.563 85.5 301.083 86.06C300.003 86.46 299.083 86.52 298.323 86.24C297.563 85.96 296.963 85.48 296.523 84.8C296.123 84.12 295.923 83.38 295.923 82.58C295.963 81.78 296.223 81.02 296.703 80.3C297.223 79.58 298.003 79.02 299.043 78.62C300.963 77.9 302.723 77.42 304.323 77.18C305.963 76.94 307.463 76.82 308.823 76.82C312.103 76.82 314.803 77.3 316.923 78.26C319.083 79.18 320.683 80.62 321.723 82.58C322.803 84.5 323.343 86.98 323.343 90.02V102.14C323.343 103.9 322.923 105.24 322.083 106.16C321.243 107.08 320.023 107.54 318.423 107.54C316.783 107.54 315.523 107.08 314.643 106.16C313.803 105.24 313.383 103.9 313.383 102.14V100.58L313.743 101.42C313.543 102.7 313.083 103.8 312.363 104.72C311.643 105.64 310.703 106.36 309.543 106.88C308.383 107.4 307.063 107.66 305.583 107.66ZM339.984 107.66C336.144 107.66 333.304 106.64 331.464 104.6C329.664 102.52 328.764 99.4 328.764 95.24V69.56C328.764 67.8 329.224 66.46 330.144 65.54C331.064 64.62 332.364 64.16 334.044 64.16C335.764 64.16 337.084 64.62 338.004 65.54C338.964 66.46 339.444 67.8 339.444 69.56V94.88C339.444 96.36 339.724 97.44 340.284 98.12C340.884 98.8 341.644 99.14 342.564 99.14C342.844 99.14 343.124 99.12 343.404 99.08C343.724 99 344.064 98.94 344.424 98.9C345.104 98.9 345.604 99.16 345.924 99.68C346.284 100.2 346.464 101.26 346.464 102.86C346.464 104.26 346.184 105.32 345.624 106.04C345.064 106.72 344.204 107.16 343.044 107.36C342.724 107.4 342.264 107.46 341.664 107.54C341.064 107.62 340.504 107.66 339.984 107.66ZM354.243 107.54C352.563 107.54 351.263 107.08 350.343 106.16C349.423 105.24 348.963 103.9 348.963 102.14V69.56C348.963 67.8 349.423 66.46 350.343 65.54C351.263 64.62 352.563 64.16 354.243 64.16C355.963 64.16 357.283 64.62 358.203 65.54C359.163 66.46 359.643 67.8 359.643 69.56V89.36H359.763L367.083 80.48C368.083 79.28 369.003 78.4 369.843 77.84C370.723 77.24 371.903 76.94 373.383 76.94C374.863 76.94 376.003 77.3 376.803 78.02C377.603 78.74 378.023 79.64 378.063 80.72C378.103 81.8 377.663 82.88 376.743 83.96L368.823 93.32V89.6L377.703 100.76C378.583 101.88 378.943 102.98 378.783 104.06C378.623 105.1 378.103 105.94 377.223 106.58C376.383 107.22 375.303 107.54 373.983 107.54C372.383 107.54 371.103 107.26 370.143 106.7C369.183 106.1 368.223 105.18 367.263 103.94L359.763 94.7H359.643V102.14C359.643 105.74 357.843 107.54 354.243 107.54Z" fill="#F9AA33"/>
<path d="M187.363 107.66C183.763 107.66 180.643 107.04 178.003 105.8C175.403 104.52 173.403 102.72 172.003 100.4C170.603 98.08 169.903 95.34 169.903 92.18C169.903 89.14 170.563 86.48 171.883 84.2C173.243 81.88 175.083 80.08 177.403 78.8C179.763 77.48 182.443 76.82 185.443 76.82C187.643 76.82 189.643 77.18 191.443 77.9C193.243 78.58 194.783 79.6 196.063 80.96C197.343 82.28 198.303 83.88 198.943 85.76C199.623 87.64 199.963 89.74 199.963 92.06C199.963 92.86 199.743 93.46 199.303 93.86C198.863 94.22 198.163 94.4 197.203 94.4H178.843V89.36H192.163L191.203 90.14C191.203 88.66 191.003 87.46 190.603 86.54C190.203 85.62 189.603 84.92 188.803 84.44C188.043 83.96 187.083 83.72 185.923 83.72C184.683 83.72 183.603 84.02 182.683 84.62C181.803 85.18 181.123 86.02 180.643 87.14C180.163 88.26 179.923 89.66 179.923 91.34V91.88C179.923 94.72 180.543 96.76 181.783 98C183.063 99.2 185.023 99.8 187.663 99.8C188.543 99.8 189.543 99.7 190.663 99.5C191.823 99.26 192.923 98.94 193.963 98.54C195.003 98.14 195.903 98.08 196.663 98.36C197.423 98.6 198.003 99.04 198.403 99.68C198.843 100.28 199.083 100.98 199.123 101.78C199.163 102.54 198.983 103.3 198.583 104.06C198.183 104.78 197.523 105.34 196.603 105.74C195.203 106.38 193.703 106.86 192.103 107.18C190.543 107.5 188.963 107.66 187.363 107.66ZM215.664 107.66C213.904 107.66 212.104 107.52 210.264 107.24C208.464 107 206.824 106.54 205.344 105.86C204.344 105.46 203.624 104.92 203.184 104.24C202.784 103.56 202.584 102.84 202.584 102.08C202.624 101.32 202.844 100.64 203.244 100.04C203.684 99.4 204.244 98.96 204.924 98.72C205.644 98.44 206.444 98.46 207.324 98.78C209.004 99.38 210.504 99.82 211.824 100.1C213.184 100.34 214.484 100.46 215.724 100.46C217.204 100.46 218.264 100.26 218.904 99.86C219.544 99.42 219.864 98.86 219.864 98.18C219.864 97.58 219.644 97.12 219.204 96.8C218.804 96.48 218.224 96.26 217.464 96.14L210.804 95.06C208.324 94.62 206.404 93.72 205.044 92.36C203.684 90.96 203.004 89.14 203.004 86.9C203.004 84.82 203.584 83.04 204.744 81.56C205.944 80.04 207.564 78.88 209.604 78.08C211.684 77.24 214.064 76.82 216.744 76.82C218.544 76.82 220.184 76.96 221.664 77.24C223.144 77.48 224.584 77.94 225.984 78.62C226.864 78.98 227.484 79.5 227.844 80.18C228.204 80.86 228.344 81.58 228.264 82.34C228.184 83.06 227.924 83.74 227.484 84.38C227.084 84.98 226.524 85.4 225.804 85.64C225.084 85.84 224.244 85.78 223.284 85.46C221.964 84.94 220.784 84.56 219.744 84.32C218.744 84.08 217.804 83.96 216.924 83.96C215.284 83.96 214.124 84.18 213.444 84.62C212.764 85.06 212.424 85.62 212.424 86.3C212.424 86.82 212.604 87.26 212.964 87.62C213.324 87.94 213.884 88.16 214.644 88.28L221.304 89.42C223.864 89.82 225.824 90.7 227.184 92.06C228.584 93.38 229.284 95.18 229.284 97.46C229.284 100.7 228.044 103.22 225.564 105.02C223.084 106.78 219.784 107.66 215.664 107.66ZM244.77 107.66C243.01 107.66 241.21 107.52 239.37 107.24C237.57 107 235.93 106.54 234.45 105.86C233.45 105.46 232.73 104.92 232.29 104.24C231.89 103.56 231.69 102.84 231.69 102.08C231.73 101.32 231.95 100.64 232.35 100.04C232.79 99.4 233.35 98.96 234.03 98.72C234.75 98.44 235.55 98.46 236.43 98.78C238.11 99.38 239.61 99.82 240.93 100.1C242.29 100.34 243.59 100.46 244.83 100.46C246.31 100.46 247.37 100.26 248.01 99.86C248.65 99.42 248.97 98.86 248.97 98.18C248.97 97.58 248.75 97.12 248.31 96.8C247.91 96.48 247.33 96.26 246.57 96.14L239.91 95.06C237.43 94.62 235.51 93.72 234.15 92.36C232.79 90.96 232.11 89.14 232.11 86.9C232.11 84.82 232.69 83.04 233.85 81.56C235.05 80.04 236.67 78.88 238.71 78.08C240.79 77.24 243.17 76.82 245.85 76.82C247.65 76.82 249.29 76.96 250.77 77.24C252.25 77.48 253.69 77.94 255.09 78.62C255.97 78.98 256.59 79.5 256.95 80.18C257.31 80.86 257.45 81.58 257.37 82.34C257.29 83.06 257.03 83.74 256.59 84.38C256.19 84.98 255.63 85.4 254.91 85.64C254.19 85.84 253.35 85.78 252.39 85.46C251.07 84.94 249.89 84.56 248.85 84.32C247.85 84.08 246.91 83.96 246.03 83.96C244.39 83.96 243.23 84.18 242.55 84.62C241.87 85.06 241.53 85.62 241.53 86.3C241.53 86.82 241.71 87.26 242.07 87.62C242.43 87.94 242.99 88.16 243.75 88.28L250.41 89.42C252.97 89.82 254.93 90.7 256.29 92.06C257.69 93.38 258.39 95.18 258.39 97.46C258.39 100.7 257.15 103.22 254.67 105.02C252.19 106.78 248.89 107.66 244.77 107.66Z" fill="#F9AA33"/>
<path d="M43.1749 106.7L40.8499 109.955L40.9024 109.992L40.9561 110.028L43.1749 106.7ZM41.6149 104.3L37.6869 105.055L37.6897 105.07L37.6926 105.084L41.6149 104.3ZM42.1549 100.82L38.5272 99.1348L38.5083 99.1755L38.4903 99.2167L42.1549 100.82ZM57.0949 68.66L60.7226 70.3452L60.7267 70.3362L57.0949 68.66ZM59.7349 65.24L57.5161 61.9118L57.4869 61.9313L57.458 61.9512L59.7349 65.24ZM66.9349 65.24L64.5977 68.4861L64.6277 68.5077L64.658 68.5288L66.9349 65.24ZM69.6349 68.66L73.2626 66.9748L73.247 66.9413L73.2308 66.9081L69.6349 68.66ZM84.5749 100.82L80.9472 102.505L80.9715 102.557L80.9972 102.609L84.5749 100.82ZM85.2349 104.3L81.3069 103.545L81.2928 103.618L81.2814 103.692L85.2349 104.3ZM83.7349 106.7L81.5161 103.372L81.4783 103.397L81.441 103.423L83.7349 106.7ZM77.0149 106.46L74.4117 109.497L74.4465 109.527L74.4819 109.556L77.0149 106.46ZM74.7349 102.98L78.4162 101.415L78.416 101.415L74.7349 102.98ZM71.4949 95.36L73.8503 92.1271L62.1487 83.6016L67.8138 96.9252L71.4949 95.36ZM75.6949 98.42V102.42H87.9779L78.0503 95.1871L75.6949 98.42ZM50.9749 98.42L48.6413 95.1713L38.5499 102.42H50.9749V98.42ZM55.2349 95.36L58.9159 96.9252L64.5077 83.7743L52.9013 92.1113L55.2349 95.36ZM51.9949 102.98L55.6426 104.621L55.6597 104.583L55.6759 104.545L51.9949 102.98ZM49.7749 106.46L47.0239 103.556H47.0239L49.7749 106.46ZM63.2749 76.22V72.22H60.6134L59.5853 74.6749L63.2749 76.22ZM56.3149 92.84L52.8598 94.8555L56.9041 101.789L60.0044 94.3851L56.3149 92.84ZM54.6349 89.96V85.96H47.6707L51.1798 91.9755L54.6349 89.96ZM72.0949 89.96L75.55 91.9755L79.059 85.96H72.0949V89.96ZM70.4149 92.84L66.7301 94.3964L69.8412 101.762L73.87 94.8555L70.4149 92.84ZM63.3949 76.22L67.0797 74.6636L66.0475 72.22H63.3949V76.22ZM46.2949 103.54C45.663 103.54 45.4402 103.403 45.3937 103.372L40.9561 110.028C42.5895 111.117 44.4468 111.54 46.2949 111.54V103.54ZM45.4998 103.445C45.4737 103.426 45.4677 103.419 45.474 103.425C45.4807 103.432 45.494 103.447 45.5087 103.47C45.5234 103.493 45.5333 103.513 45.5388 103.527C45.5441 103.54 45.5418 103.538 45.5372 103.516L37.6926 105.084C38.0946 107.094 39.1942 108.772 40.8499 109.955L45.4998 103.445ZM45.5429 103.545C45.5377 103.518 45.4817 103.195 45.8195 102.423L38.4903 99.2167C37.7081 101.005 37.2921 103.002 37.6869 105.055L45.5429 103.545ZM45.7826 102.505L60.7226 70.3452L53.4672 66.9748L38.5272 99.1348L45.7826 102.505ZM60.7267 70.3362C61.2505 69.2014 61.7333 68.7215 62.0117 68.5288L57.458 61.9512C55.6564 63.1985 54.3793 64.9986 53.463 66.9838L60.7267 70.3362ZM61.9537 68.5682C62.3443 68.3078 62.7848 68.16 63.3949 68.16V60.16C61.285 60.16 59.2855 60.7322 57.5161 61.9118L61.9537 68.5682ZM63.3949 68.16C64.0073 68.16 64.3489 68.307 64.5977 68.4861L69.2721 61.9939C67.5208 60.733 65.5025 60.16 63.3949 60.16V68.16ZM64.658 68.5288C64.9625 68.7396 65.4728 69.2498 66.0389 70.4119L73.2308 66.9081C72.277 64.9502 70.9872 63.1804 69.2117 61.9512L64.658 68.5288ZM66.0072 70.3452L80.9472 102.505L88.2026 99.1348L73.2626 66.9748L66.0072 70.3452ZM80.9972 102.609C81.3808 103.376 81.291 103.627 81.3069 103.545L89.1629 105.055C89.5788 102.893 89.049 100.824 88.1526 99.0311L80.9972 102.609ZM81.2814 103.692C81.2744 103.737 81.2785 103.671 81.3479 103.56C81.3799 103.509 81.4163 103.464 81.4518 103.428C81.4868 103.392 81.5117 103.375 81.5161 103.372L85.9537 110.028C87.7719 108.816 88.8658 107.005 89.1884 104.908L81.2814 103.692ZM81.441 103.423C81.4337 103.428 81.3994 103.452 81.3064 103.478C81.207 103.506 81.0256 103.54 80.7349 103.54V111.54C82.5654 111.54 84.4158 111.106 86.0287 109.977L81.441 103.423ZM80.7349 103.54C79.6881 103.54 79.4713 103.302 79.5478 103.364L74.4819 109.556C76.3184 111.058 78.5817 111.54 80.7349 111.54V103.54ZM79.618 103.423C79.4383 103.269 78.9789 102.739 78.4162 101.415L71.0536 104.545C71.8509 106.421 72.9114 108.211 74.4117 109.497L79.618 103.423ZM78.416 101.415L75.1759 93.7948L67.8138 96.9252L71.0538 104.545L78.416 101.415ZM69.1395 98.5929L73.3395 101.653L78.0503 95.1871L73.8503 92.1271L69.1395 98.5929ZM75.6949 94.42H50.9749V102.42H75.6949V94.42ZM53.3085 101.669L57.5685 98.6087L52.9013 92.1113L48.6413 95.1713L53.3085 101.669ZM51.5538 93.7948L48.3138 101.415L55.6759 104.545L58.9159 96.9252L51.5538 93.7948ZM48.3472 101.339C47.716 102.741 47.234 103.357 47.0239 103.556L52.5259 109.364C53.8358 108.123 54.8338 106.419 55.6426 104.621L48.3472 101.339ZM47.0239 103.556C47.1547 103.432 47.2378 103.422 47.1493 103.45C47.0444 103.482 46.781 103.54 46.2949 103.54V111.54C48.3853 111.54 50.729 111.066 52.5259 109.364L47.0239 103.556ZM59.5853 74.6749L52.6253 91.2949L60.0044 94.3851L66.9644 77.7651L59.5853 74.6749ZM59.77 90.8245L58.09 87.9445L51.1798 91.9755L52.8598 94.8555L59.77 90.8245ZM54.6349 93.96H72.0949V85.96H54.6349V93.96ZM68.6398 87.9445L66.9598 90.8245L73.87 94.8555L75.55 91.9755L68.6398 87.9445ZM74.0997 91.2836L67.0797 74.6636L59.7101 77.7764L66.7301 94.3964L74.0997 91.2836ZM63.3949 72.22H63.2749V80.22H63.3949V72.22ZM88.2766 106.7L85.9516 109.955L86.0041 109.992L86.0578 110.028L88.2766 106.7ZM86.7166 104.3L82.7886 105.055L82.7914 105.07L82.7943 105.084L86.7166 104.3ZM87.2566 100.82L83.6289 99.1348L83.61 99.1755L83.592 99.2167L87.2566 100.82ZM102.197 68.66L105.824 70.3452L105.828 70.3362L102.197 68.66ZM104.837 65.24L102.618 61.9118L102.589 61.9313L102.56 61.9512L104.837 65.24ZM112.037 65.24L109.699 68.4861L109.729 68.5077L109.76 68.5288L112.037 65.24ZM114.737 68.66L118.364 66.9748L118.349 66.9413L118.333 66.9081L114.737 68.66ZM129.677 100.82L126.049 102.505L126.073 102.557L126.099 102.609L129.677 100.82ZM130.337 104.3L126.409 103.545L126.394 103.618L126.383 103.692L130.337 104.3ZM128.837 106.7L126.618 103.372L126.58 103.397L126.543 103.423L128.837 106.7ZM122.117 106.46L119.513 109.497L119.548 109.527L119.584 109.556L122.117 106.46ZM119.837 102.98L123.518 101.415L123.518 101.415L119.837 102.98ZM116.597 95.36L118.952 92.1271L107.25 83.6016L112.916 96.9252L116.597 95.36ZM120.797 98.42V102.42H133.08L123.152 95.1871L120.797 98.42ZM96.0766 98.42L93.743 95.1713L83.6516 102.42H96.0766V98.42ZM100.337 95.36L104.018 96.9252L109.609 83.7743L98.003 92.1113L100.337 95.36ZM97.0966 102.98L100.744 104.621L100.761 104.583L100.778 104.545L97.0966 102.98ZM94.8766 106.46L92.1256 103.556L94.8766 106.46ZM108.377 76.22V72.22H105.715L104.687 74.6749L108.377 76.22ZM101.417 92.84L97.9615 94.8555L102.006 101.789L105.106 94.3851L101.417 92.84ZM99.7366 89.96V85.96H92.7725L96.2815 91.9755L99.7366 89.96ZM117.197 89.96L120.652 91.9755L124.161 85.96H117.197V89.96ZM115.517 92.84L111.832 94.3964L114.943 101.762L118.972 94.8555L115.517 92.84ZM108.497 76.22L112.181 74.6636L111.149 72.22H108.497V76.22ZM91.3966 103.54C90.7647 103.54 90.542 103.403 90.4954 103.372L86.0578 110.028C87.6913 111.117 89.5485 111.54 91.3966 111.54V103.54ZM90.6016 103.445C90.5754 103.426 90.5694 103.419 90.5757 103.425C90.5825 103.432 90.5957 103.447 90.6104 103.47C90.6251 103.493 90.635 103.513 90.6405 103.527C90.6458 103.54 90.6435 103.538 90.6389 103.516L82.7943 105.084C83.1963 107.094 84.296 108.772 85.9516 109.955L90.6016 103.445ZM90.6446 103.545C90.6394 103.518 90.5834 103.195 90.9212 102.423L83.592 99.2167C82.8098 101.005 82.3938 103.002 82.7886 105.055L90.6446 103.545ZM90.8843 102.505L105.824 70.3452L98.5689 66.9748L83.6289 99.1348L90.8843 102.505ZM105.828 70.3362C106.352 69.2014 106.835 68.7215 107.113 68.5288L102.56 61.9512C100.758 63.1985 99.481 64.9986 98.5648 66.9838L105.828 70.3362ZM107.055 68.5682C107.446 68.3078 107.886 68.16 108.497 68.16V60.16C106.387 60.16 104.387 60.7322 102.618 61.9118L107.055 68.5682ZM108.497 68.16C109.109 68.16 109.451 68.307 109.699 68.4861L114.374 61.9939C112.623 60.733 110.604 60.16 108.497 60.16V68.16ZM109.76 68.5288C110.064 68.7396 110.574 69.2498 111.141 70.4119L118.333 66.9081C117.379 64.9502 116.089 63.1804 114.313 61.9512L109.76 68.5288ZM111.109 70.3452L126.049 102.505L133.304 99.1348L118.364 66.9748L111.109 70.3452ZM126.099 102.609C126.483 103.376 126.393 103.627 126.409 103.545L134.265 105.055C134.68 102.893 134.151 100.824 133.254 99.0311L126.099 102.609ZM126.383 103.692C126.376 103.737 126.38 103.671 126.45 103.56C126.482 103.509 126.518 103.464 126.554 103.428C126.589 103.392 126.613 103.375 126.618 103.372L131.055 110.028C132.874 108.816 133.967 107.005 134.29 104.908L126.383 103.692ZM126.543 103.423C126.535 103.428 126.501 103.452 126.408 103.478C126.309 103.506 126.127 103.54 125.837 103.54V111.54C127.667 111.54 129.518 111.106 131.13 109.977L126.543 103.423ZM125.837 103.54C124.79 103.54 124.573 103.302 124.65 103.364L119.584 109.556C121.42 111.058 123.683 111.54 125.837 111.54V103.54ZM124.72 103.423C124.54 103.269 124.081 102.739 123.518 101.415L116.155 104.545C116.953 106.421 118.013 108.211 119.513 109.497L124.72 103.423ZM123.518 101.415L120.278 93.7948L112.916 96.9252L116.156 104.545L123.518 101.415ZM114.241 98.5929L118.441 101.653L123.152 95.1871L118.952 92.1271L114.241 98.5929ZM120.797 94.42H96.0766V102.42H120.797V94.42ZM98.4102 101.669L102.67 98.6087L98.003 92.1113L93.743 95.1713L98.4102 101.669ZM96.6555 93.7948L93.4155 101.415L100.778 104.545L104.018 96.9252L96.6555 93.7948ZM93.4489 101.339C92.8177 102.741 92.3357 103.357 92.1256 103.556L97.6276 109.364C98.9375 108.123 99.9355 106.419 100.744 104.621L93.4489 101.339ZM92.1256 103.556C92.2564 103.432 92.3395 103.422 92.251 103.45C92.1461 103.482 91.8827 103.54 91.3966 103.54V111.54C93.4871 111.54 95.8307 111.066 97.6276 109.364L92.1256 103.556ZM104.687 74.6749L97.7271 91.2949L105.106 94.3851L112.066 77.7651L104.687 74.6749ZM104.872 90.8245L103.192 87.9445L96.2815 91.9755L97.9615 94.8555L104.872 90.8245ZM99.7366 93.96H117.197V85.96H99.7366V93.96ZM113.741 87.9445L112.061 90.8245L118.972 94.8555L120.652 91.9755L113.741 87.9445ZM119.201 91.2836L112.181 74.6636L104.812 77.7764L111.832 94.3964L119.201 91.2836ZM108.497 72.22H108.377V80.22H108.497V72.22ZM142.764 104.96L144.653 101.434V101.434L142.764 104.96ZM135.024 97.34L131.499 99.2313L131.508 99.2479L131.517 99.2644L135.024 97.34ZM133.884 76.88L130.155 75.4329L130.145 75.4572L130.136 75.4816L133.884 76.88ZM138.324 69.98L135.525 67.1226L135.51 67.137L135.495 67.1516L138.324 69.98ZM145.404 65.6L146.766 69.3608L146.781 69.3553L146.796 69.3497L145.404 65.6ZM160.524 64.7L159.647 68.6029L159.693 68.6131L159.739 68.6223L160.524 64.7ZM165.804 66.56L163.869 70.061L163.892 70.0736L163.915 70.0859L165.804 66.56ZM168.144 68.84L164.535 70.5658L164.535 70.5658L168.144 68.84ZM168.564 71.66L164.618 71.0024L164.605 71.0829L164.595 71.1639L168.564 71.66ZM165.384 75.8L166.436 79.659L166.517 79.6371L166.596 79.6117L165.384 75.8ZM162.504 75.38L164.292 71.8023L164.244 71.7781L164.195 71.7553L162.504 75.38ZM158.904 74.12L157.84 77.976L157.917 77.9972L157.995 78.0154L158.904 74.12ZM149.004 75.08L150.961 78.5686L150.974 78.5608L150.988 78.553L149.004 75.08ZM145.284 92.54L141.645 94.2012L141.652 94.2164L141.659 94.2315L145.284 92.54ZM149.004 96.68L146.983 100.132L147.032 100.161L147.082 100.188L149.004 96.68ZM158.604 97.7L159.388 101.622L159.451 101.61L159.513 101.595L158.604 97.7ZM162.144 96.44L160.553 92.7698L160.478 92.8023L160.405 92.8378L162.144 96.44ZM165.324 96.02L164.314 99.8905L164.334 99.8956L164.353 99.9006L165.324 96.02ZM167.604 97.46L164.446 99.9158L164.488 99.969L164.531 100.021L167.604 97.46ZM168.744 99.98L164.798 100.638L164.8 100.651L164.803 100.665L168.744 99.98ZM168.324 102.74L164.715 101.014L164.684 101.079L164.655 101.145L168.324 102.74ZM166.164 104.96L164.267 101.438L164.185 101.482L164.106 101.53L166.164 104.96ZM160.944 106.94L160.044 103.042L160.036 103.044L160.027 103.046L160.944 106.94ZM154.824 103.66C150.654 103.66 147.314 102.86 144.653 101.434L140.875 108.486C144.934 110.66 149.633 111.66 154.824 111.66V103.66ZM144.653 101.434C141.962 99.9927 139.95 98.0029 138.53 95.4156L131.517 99.2644C133.697 103.237 136.845 106.327 140.875 108.486L144.653 101.434ZM138.548 95.4487C137.153 92.8476 136.384 89.6801 136.384 85.82H128.384C128.384 90.7599 129.375 95.2724 131.499 99.2313L138.548 95.4487ZM136.384 85.82C136.384 82.9483 136.821 80.4506 137.631 78.2784L130.136 75.4816C128.947 78.6694 128.384 82.1317 128.384 85.82H136.384ZM137.613 78.3271C138.464 76.1341 139.648 74.3127 141.152 72.8084L135.495 67.1516C133.159 69.4873 131.384 72.2659 130.155 75.4329L137.613 78.3271ZM141.123 72.8374C142.646 71.3453 144.506 70.1797 146.766 69.3608L144.041 61.8392C140.781 63.0203 137.921 64.7747 135.525 67.1226L141.123 72.8374ZM146.796 69.3497C149.084 68.5001 151.742 68.04 154.824 68.04V60.04C150.945 60.04 147.324 60.6199 144.011 61.8503L146.796 69.3497ZM154.824 68.04C156.343 68.04 157.949 68.2216 159.647 68.6029L161.4 60.7971C159.178 60.2984 156.984 60.04 154.824 60.04V68.04ZM159.739 68.6223C161.405 68.9554 162.765 69.4508 163.869 70.061L167.738 63.059C165.803 61.9892 163.642 61.2445 161.308 60.7777L159.739 68.6223ZM163.915 70.0859C164.198 70.2377 164.356 70.3657 164.437 70.4449C164.513 70.5187 164.532 70.5587 164.535 70.5658L171.752 67.1142C170.863 65.255 169.376 63.9358 167.693 63.0341L163.915 70.0859ZM164.535 70.5658C164.639 70.7824 164.636 70.8928 164.618 71.0024L172.509 72.3176C172.811 70.5072 172.529 68.7376 171.752 67.1142L164.535 70.5658ZM164.595 71.1639C164.557 71.4621 164.467 71.6725 164.323 71.8672L170.764 76.6128C171.74 75.2875 172.33 73.7779 172.533 72.1561L164.595 71.1639ZM164.323 71.8672C164.274 71.9345 164.245 71.9548 164.242 71.9573C164.239 71.9592 164.223 71.9717 164.171 71.9883L166.596 79.6117C168.3 79.0698 169.715 78.036 170.764 76.6128L164.323 71.8672ZM164.331 71.9409C164.387 71.9258 164.442 71.9173 164.492 71.9146C164.54 71.912 164.572 71.9155 164.581 71.9169C164.597 71.9191 164.505 71.9084 164.292 71.8023L160.715 78.9577C162.385 79.793 164.368 80.2231 166.436 79.659L164.331 71.9409ZM164.195 71.7553C162.763 71.0869 161.301 70.572 159.813 70.2246L157.995 78.0154C158.906 78.228 159.844 78.5531 160.812 79.0047L164.195 71.7553ZM159.967 70.264C158.44 69.8426 156.86 69.64 155.244 69.64V77.64C156.187 77.64 157.048 77.7574 157.84 77.976L159.967 70.264ZM155.244 69.64C152.26 69.64 149.451 70.2175 147.019 71.607L150.988 78.553C151.916 78.0225 153.268 77.64 155.244 77.64V69.64ZM147.047 71.5914C144.634 72.945 142.832 74.955 141.659 77.4685L148.908 80.8515C149.415 79.765 150.093 79.055 150.961 78.5686L147.047 71.5914ZM141.659 77.4685C140.504 79.9423 140.024 82.7787 140.024 85.82H148.024C148.024 83.5813 148.383 81.9777 148.908 80.8515L141.659 77.4685ZM140.024 85.82C140.024 88.8657 140.506 91.7063 141.645 94.2012L148.922 90.8788C148.381 89.6937 148.024 88.0543 148.024 85.82H140.024ZM141.659 94.2315C142.826 96.7323 144.609 98.7424 146.983 100.132L151.024 93.2279C150.118 92.6976 149.421 91.9477 148.908 90.8485L141.659 94.2315ZM147.082 100.188C149.5 101.512 152.285 102.06 155.244 102.06V94.06C153.243 94.06 151.867 93.6878 150.925 93.1716L147.082 100.188ZM155.244 102.06C156.588 102.06 157.974 101.905 159.388 101.622L157.819 93.7777C156.834 93.9748 155.979 94.06 155.244 94.06V102.06ZM159.513 101.595C161.012 101.246 162.47 100.724 163.883 100.042L160.405 92.8378C159.498 93.2756 158.595 93.5945 157.695 93.8046L159.513 101.595ZM163.734 100.11C164.418 99.8138 164.532 99.9474 164.314 99.8905L166.333 92.1495C164.275 91.6126 162.269 92.0262 160.553 92.7698L163.734 100.11ZM164.353 99.9006C164.409 99.9145 164.444 99.9274 164.462 99.9348C164.479 99.942 164.483 99.9452 164.478 99.942C164.472 99.9386 164.464 99.9326 164.455 99.9248C164.447 99.917 164.444 99.9127 164.446 99.9158L170.761 95.0042C169.604 93.5168 168.043 92.5768 166.294 92.1394L164.353 99.9006ZM164.531 100.021C164.658 100.174 164.75 100.35 164.798 100.638L172.689 99.3224C172.417 97.6899 171.749 96.1864 170.677 94.8993L164.531 100.021ZM164.803 100.665C164.807 100.691 164.831 100.771 164.715 101.014L171.932 104.466C172.696 102.869 173 101.109 172.684 99.2946L164.803 100.665ZM164.655 101.145C164.654 101.149 164.65 101.162 164.617 101.196C164.579 101.235 164.479 101.324 164.267 101.438L168.06 108.482C169.744 107.575 171.173 106.218 171.992 104.335L164.655 101.145ZM164.106 101.53C163.156 102.1 161.834 102.629 160.044 103.042L161.843 110.838C164.213 110.291 166.371 109.5 168.222 108.39L164.106 101.53ZM160.027 103.046C158.28 103.458 156.547 103.66 154.824 103.66V111.66C157.18 111.66 159.528 111.382 161.86 110.834L160.027 103.046ZM178.003 105.8L176.236 109.389L176.269 109.405L176.302 109.421L178.003 105.8ZM172.003 100.4L168.578 102.467L172.003 100.4ZM171.883 84.2L168.432 82.1771L168.427 82.1865L168.421 82.1959L171.883 84.2ZM177.403 78.8L179.335 82.3023L179.345 82.2967L179.355 82.291L177.403 78.8ZM191.443 77.9L189.957 81.6139L189.993 81.6282L190.029 81.6419L191.443 77.9ZM196.063 80.96L193.15 83.7015L193.17 83.7232L193.191 83.7446L196.063 80.96ZM198.943 85.76L195.156 87.0491L195.168 87.0849L195.181 87.1205L198.943 85.76ZM199.303 93.86L201.836 96.9558L201.916 96.8899L201.994 96.8198L199.303 93.86ZM178.843 94.4H174.843V98.4H178.843V94.4ZM178.843 89.36V85.36H174.843V89.36H178.843ZM192.163 89.36L194.685 92.4645L203.429 85.36H192.163V89.36ZM191.203 90.14H187.203V98.5439L193.725 93.2445L191.203 90.14ZM188.803 84.44L186.667 87.822L186.706 87.8464L186.745 87.87L188.803 84.44ZM182.683 84.62L184.83 87.9946L184.849 87.9826L184.868 87.9704L182.683 84.62ZM180.643 87.14L176.966 85.5643V85.5643L180.643 87.14ZM181.783 98L178.954 100.828L179 100.874L179.047 100.918L181.783 98ZM190.663 99.5L191.366 103.438L191.42 103.428L191.473 103.417L190.663 99.5ZM193.963 98.54L195.399 102.273L193.963 98.54ZM196.663 98.36L195.28 102.113L195.368 102.146L195.458 102.174L196.663 98.36ZM198.403 99.68L195.011 101.8L195.089 101.926L195.177 102.045L198.403 99.68ZM199.123 101.78L195.128 101.98L195.128 101.99L199.123 101.78ZM198.583 104.06L202.079 106.003L202.101 105.963L202.123 105.923L198.583 104.06ZM196.603 105.74L195.008 102.072L194.974 102.087L194.94 102.102L196.603 105.74ZM192.103 107.18L191.318 103.258L191.309 103.26L191.299 103.262L192.103 107.18ZM187.363 103.66C184.216 103.66 181.702 103.118 179.703 102.179L176.302 109.421C179.584 110.962 183.31 111.66 187.363 111.66V103.66ZM179.77 102.211C177.807 101.245 176.404 99.9517 175.428 98.3333L168.578 102.467C170.401 105.488 172.999 107.795 176.236 109.389L179.77 102.211ZM175.428 98.3333C174.463 96.7343 173.903 94.7343 173.903 92.18H165.903C165.903 95.9457 166.743 99.4257 168.578 102.467L175.428 98.3333ZM173.903 92.18C173.903 89.734 174.428 87.7867 175.345 86.2041L168.421 82.1959C166.697 85.1733 165.903 88.546 165.903 92.18H173.903ZM175.334 86.2229C176.335 84.5139 177.655 83.2293 179.335 82.3023L175.471 75.2977C172.511 76.9307 170.15 79.2461 168.432 82.1771L175.334 86.2229ZM179.355 82.291C181.055 81.3402 183.05 80.82 185.443 80.82V72.82C181.836 72.82 178.47 73.6198 175.45 75.309L179.355 82.291ZM185.443 80.82C187.202 80.82 188.689 81.1067 189.957 81.6139L192.928 74.1861C190.597 73.2533 188.084 72.82 185.443 72.82V80.82ZM190.029 81.6419C191.278 82.1135 192.3 82.7983 193.15 83.7015L198.976 78.2185C197.266 76.4017 195.208 75.0465 192.856 74.1581L190.029 81.6419ZM193.191 83.7446C194.027 84.6066 194.691 85.6835 195.156 87.0491L202.729 84.4709C201.914 82.0765 200.659 79.9534 198.934 78.1754L193.191 83.7446ZM195.181 87.1205C195.68 88.5005 195.963 90.1308 195.963 92.06H203.963C203.963 89.3492 203.565 86.7795 202.704 84.3995L195.181 87.1205ZM195.963 92.06C195.963 92.1037 195.956 91.9694 196.042 91.733C196.137 91.4737 196.319 91.1663 196.612 90.9002L201.994 96.8198C203.527 95.4254 203.963 93.58 203.963 92.06H195.963ZM196.77 90.7642C197.104 90.4906 197.387 90.4078 197.452 90.391C197.513 90.3752 197.449 90.4 197.203 90.4V98.4C198.505 98.4 200.333 98.1853 201.836 96.9558L196.77 90.7642ZM197.203 90.4H178.843V98.4H197.203V90.4ZM182.843 94.4V89.36H174.843V94.4H182.843ZM178.843 93.36H192.163V85.36H178.843V93.36ZM189.64 86.2555L188.68 87.0355L193.725 93.2445L194.685 92.4645L189.64 86.2555ZM195.203 90.14C195.203 88.3495 194.968 86.5486 194.271 84.9451L186.935 88.1349C187.037 88.3714 187.203 88.9705 187.203 90.14H195.203ZM194.271 84.9451C193.565 83.3213 192.431 81.9518 190.861 81.01L186.745 87.87C186.775 87.8881 186.841 87.9187 186.935 88.1349L194.271 84.9451ZM190.939 81.058C189.378 80.0725 187.622 79.72 185.923 79.72V87.72C186.543 87.72 186.707 87.8475 186.667 87.822L190.939 81.058ZM185.923 79.72C184.01 79.72 182.149 80.1926 180.498 81.2696L184.868 87.9704C185.057 87.8474 185.356 87.72 185.923 87.72V79.72ZM180.535 81.2454C178.868 82.3065 177.709 83.8321 176.966 85.5643L184.319 88.7157C184.537 88.2078 184.738 88.0535 184.83 87.9946L180.535 81.2454ZM176.966 85.5643C176.208 87.3327 175.923 89.3103 175.923 91.34H183.923C183.923 90.0097 184.117 89.1873 184.319 88.7157L176.966 85.5643ZM175.923 91.34V91.88H183.923V91.34H175.923ZM175.923 91.88C175.923 95.1517 176.613 98.4873 178.954 100.828L184.611 95.1716C184.472 95.0327 183.923 94.2883 183.923 91.88H175.923ZM179.047 100.918C181.367 103.093 184.508 103.8 187.663 103.8V95.8C185.538 95.8 184.758 95.3066 184.519 95.0819L179.047 100.918ZM187.663 103.8C188.835 103.8 190.077 103.668 191.366 103.438L189.96 95.5623C189.008 95.7322 188.25 95.8 187.663 95.8V103.8ZM191.473 103.417C192.833 103.136 194.143 102.756 195.399 102.273L192.527 94.8066C191.702 95.1238 190.813 95.3843 189.852 95.583L191.473 103.417ZM195.399 102.273C195.628 102.185 195.716 102.184 195.684 102.186C195.665 102.187 195.615 102.189 195.541 102.179C195.466 102.169 195.376 102.149 195.28 102.113L198.046 94.6066C196.082 93.8832 194.132 94.1894 192.527 94.8066L195.399 102.273ZM195.458 102.174C195.442 102.169 195.359 102.139 195.25 102.057C195.139 101.973 195.059 101.876 195.011 101.8L201.795 97.56C200.861 96.0652 199.48 95.0548 197.867 94.5457L195.458 102.174ZM195.177 102.045C195.17 102.036 195.161 102.021 195.151 102.003C195.141 101.984 195.134 101.967 195.129 101.952C195.124 101.938 195.123 101.93 195.123 101.933C195.124 101.935 195.126 101.95 195.128 101.98L203.118 101.58C203.042 100.061 202.567 98.5944 201.628 97.3145L195.177 102.045ZM195.128 101.99C195.128 101.98 195.13 101.979 195.126 101.998C195.12 102.02 195.102 102.085 195.043 102.197L202.123 105.923C202.814 104.609 203.2 103.138 203.117 101.57L195.128 101.99ZM195.086 102.117C195.107 102.08 195.13 102.047 195.153 102.019C195.176 101.991 195.194 101.975 195.2 101.97C195.212 101.96 195.164 102.004 195.008 102.072L198.198 109.408C199.744 108.736 201.166 107.647 202.079 106.003L195.086 102.117ZM194.94 102.102C193.837 102.606 192.634 102.995 191.318 103.258L192.887 111.102C194.772 110.725 196.569 110.154 198.266 109.378L194.94 102.102ZM191.299 103.262C190.005 103.527 188.694 103.66 187.363 103.66V111.66C189.232 111.66 191.081 111.473 192.907 111.098L191.299 103.262ZM210.264 107.24L210.866 103.286L210.829 103.28L210.793 103.275L210.264 107.24ZM205.344 105.86L207.014 102.225L206.923 102.183L206.83 102.146L205.344 105.86ZM203.184 104.24L199.736 106.268L199.78 106.341L199.826 106.413L203.184 104.24ZM202.584 102.08L198.59 101.87L198.584 101.975V102.08H202.584ZM203.244 100.04L199.948 97.7739L199.932 97.7974L199.916 97.8212L203.244 100.04ZM204.924 98.72L206.255 102.492L206.315 102.471L206.374 102.448L204.924 98.72ZM207.324 98.78L205.957 102.539L205.968 102.543L205.979 102.547L207.324 98.78ZM211.824 100.1L210.994 104.013L211.061 104.027L211.129 104.039L211.824 100.1ZM218.904 99.86L221.024 103.252L221.098 103.206L221.17 103.156L218.904 99.86ZM219.204 96.8L216.705 99.9235L216.777 99.9809L216.851 100.035L219.204 96.8ZM217.464 96.14L216.824 100.088L216.832 100.09L216.84 100.091L217.464 96.14ZM210.804 95.06L210.105 98.9985L210.135 99.0037L210.164 99.0084L210.804 95.06ZM205.044 92.36L202.175 95.1471L202.195 95.1679L202.216 95.1884L205.044 92.36ZM204.744 81.56L201.605 79.0814L201.596 79.0925L204.744 81.56ZM209.604 78.08L211.064 81.8039L211.083 81.7965L211.102 81.789L209.604 78.08ZM221.664 77.24L220.921 81.1703L220.972 81.18L221.024 81.1884L221.664 77.24ZM225.984 78.62L224.236 82.218L224.351 82.2738L224.47 82.3222L225.984 78.62ZM227.844 80.18L231.379 78.3085V78.3084L227.844 80.18ZM228.264 82.34L232.24 82.7817L232.241 82.7702L232.242 82.7587L228.264 82.34ZM227.484 84.38L224.188 82.1139L224.172 82.1374L224.156 82.1612L227.484 84.38ZM225.804 85.64L226.875 89.4941L226.973 89.4669L227.069 89.4347L225.804 85.64ZM223.284 85.46L221.818 89.1816L221.918 89.2209L222.019 89.2547L223.284 85.46ZM219.744 84.32L218.811 88.2095L218.828 88.2136L218.845 88.2176L219.744 84.32ZM213.444 84.62L211.271 81.2617V81.2617L213.444 84.62ZM212.964 87.62L210.136 90.4484L210.219 90.5315L210.307 90.6096L212.964 87.62ZM214.644 88.28L215.319 84.3373L215.293 84.333L215.268 84.3289L214.644 88.28ZM221.304 89.42L220.629 93.3627L220.658 93.3676L220.687 93.372L221.304 89.42ZM227.184 92.06L224.356 94.8884L224.397 94.93L224.44 94.9704L227.184 92.06ZM225.564 105.02L227.879 108.282L227.896 108.27L227.914 108.257L225.564 105.02ZM215.664 103.66C214.117 103.66 212.518 103.537 210.866 103.286L209.662 111.194C211.69 111.503 213.692 111.66 215.664 111.66V103.66ZM210.793 103.275C209.343 103.082 208.093 102.721 207.014 102.225L203.674 109.495C205.555 110.359 207.585 110.918 209.735 111.205L210.793 103.275ZM206.83 102.146C206.594 102.052 206.484 101.978 206.454 101.955C206.43 101.937 206.479 101.969 206.542 102.067L199.826 106.413C200.843 107.984 202.34 108.967 203.859 109.574L206.83 102.146ZM206.632 102.212C206.599 102.155 206.59 102.126 206.588 102.119C206.587 102.114 206.584 102.104 206.584 102.08H198.584C198.584 103.581 198.989 104.998 199.736 106.268L206.632 102.212ZM206.579 102.29C206.58 102.261 206.583 102.244 206.584 102.236C206.586 102.228 206.586 102.227 206.585 102.231C206.583 102.236 206.581 102.242 206.578 102.249C206.575 102.255 206.572 102.259 206.572 102.259L199.916 97.8212C199.095 99.0523 198.665 100.434 198.59 101.87L206.579 102.29ZM206.54 102.306C206.552 102.289 206.531 102.324 206.465 102.375C206.398 102.428 206.322 102.469 206.255 102.492L203.593 94.948C202.052 95.4917 200.828 96.4936 199.948 97.7739L206.54 102.306ZM206.374 102.448C206.223 102.507 206.074 102.527 205.964 102.524C205.865 102.521 205.856 102.502 205.957 102.539L208.691 95.0208C207.102 94.4429 205.281 94.2895 203.474 94.992L206.374 102.448ZM205.979 102.547C207.777 103.189 209.454 103.686 210.994 104.013L212.654 96.1871C211.554 95.9538 210.231 95.5708 208.669 95.013L205.979 102.547ZM211.129 104.039C212.693 104.315 214.227 104.46 215.724 104.46V96.46C214.742 96.46 213.675 96.3649 212.519 96.1609L211.129 104.039ZM215.724 104.46C217.356 104.46 219.383 104.278 221.024 103.252L216.784 96.468C217.026 96.3171 217.121 96.3352 216.887 96.3794C216.673 96.4198 216.3 96.46 215.724 96.46V104.46ZM221.17 103.156C222.717 102.093 223.864 100.38 223.864 98.18H215.864C215.864 97.8631 215.947 97.483 216.151 97.1254C216.344 96.7872 216.562 96.6161 216.638 96.5638L221.17 103.156ZM223.864 98.18C223.864 96.4529 223.149 94.7232 221.557 93.5651L216.851 100.035C216.571 99.831 216.286 99.5204 216.091 99.1108C215.901 98.7149 215.864 98.3725 215.864 98.18H223.864ZM221.703 93.6765C220.555 92.7578 219.216 92.367 218.088 92.1889L216.84 100.091C217.011 100.118 217.07 100.142 217.05 100.135C217.03 100.127 216.891 100.072 216.705 99.9235L221.703 93.6765ZM218.104 92.1916L211.444 91.1116L210.164 99.0084L216.824 100.088L218.104 92.1916ZM211.503 91.1215C209.582 90.7807 208.498 90.1567 207.873 89.5316L202.216 95.1884C204.311 97.2833 207.066 98.4593 210.105 98.9985L211.503 91.1215ZM207.913 89.5729C207.386 89.0306 207.004 88.2652 207.004 86.9H199.004C199.004 90.0148 199.982 92.8894 202.175 95.1471L207.913 89.5729ZM207.004 86.9C207.004 85.614 207.343 84.7281 207.892 84.0275L201.596 79.0925C199.825 81.3519 199.004 84.026 199.004 86.9H207.004ZM207.884 84.0386C208.589 83.1454 209.596 82.3797 211.064 81.8039L208.144 74.3561C205.532 75.3803 203.299 76.9346 201.605 79.0814L207.884 84.0386ZM211.102 81.789C212.623 81.1747 214.48 80.82 216.744 80.82V72.82C213.649 72.82 210.745 73.3053 208.106 74.371L211.102 81.789ZM216.744 80.82C218.341 80.82 219.728 80.9446 220.921 81.1703L222.408 73.3097C220.641 72.9754 218.747 72.82 216.744 72.82V80.82ZM221.024 81.1884C222.105 81.3638 223.173 81.7016 224.236 82.218L227.732 75.022C225.995 74.1784 224.183 73.5962 222.304 73.2916L221.024 81.1884ZM224.47 82.3222C224.592 82.3723 224.595 82.3923 224.539 82.3448C224.51 82.3207 224.47 82.2829 224.427 82.2301C224.384 82.177 224.343 82.1166 224.309 82.0516L231.379 78.3084C230.485 76.619 229.035 75.5462 227.499 74.9178L224.47 82.3222ZM224.309 82.0515C224.312 82.0579 224.31 82.0548 224.306 82.0428C224.302 82.0307 224.297 82.0138 224.293 81.9935C224.289 81.9731 224.287 81.9545 224.286 81.9395C224.286 81.9247 224.286 81.918 224.286 81.9213L232.242 82.7587C232.406 81.2025 232.108 79.6858 231.379 78.3085L224.309 82.0515ZM224.289 81.8983C224.287 81.9166 224.282 81.9765 224.188 82.1139L230.78 86.6461C231.566 85.5035 232.082 84.2034 232.24 82.7817L224.289 81.8983ZM224.156 82.1612C224.2 82.0954 224.27 82.0153 224.364 81.945C224.456 81.8762 224.526 81.8498 224.539 81.8453L227.069 89.4347C228.585 88.9293 229.892 87.9795 230.812 86.5988L224.156 82.1612ZM224.734 81.7859C224.866 81.749 224.94 81.7567 224.919 81.7552C224.892 81.7532 224.773 81.74 224.549 81.6653L222.019 89.2547C223.473 89.7395 225.16 89.9705 226.875 89.4941L224.734 81.7859ZM224.75 81.7384C223.302 81.1678 221.927 80.7187 220.644 80.4224L218.845 88.2176C219.641 88.4013 220.626 88.7122 221.818 89.1816L224.75 81.7384ZM220.678 80.4305C219.422 80.1291 218.166 79.96 216.924 79.96V87.96C217.442 87.96 218.066 88.0309 218.811 88.2095L220.678 80.4305ZM216.924 79.96C215.16 79.96 212.985 80.1529 211.271 81.2617L215.617 87.9783C215.372 88.137 215.285 88.1089 215.569 88.0549C215.83 88.0056 216.266 87.96 216.924 87.96V79.96ZM211.271 81.2617C209.704 82.2757 208.424 83.988 208.424 86.3H216.424C216.424 86.663 216.323 87.0757 216.098 87.4459C215.89 87.7892 215.667 87.9461 215.617 87.9783L211.271 81.2617ZM208.424 86.3C208.424 87.8554 209.008 89.3205 210.136 90.4484L215.793 84.7916C215.961 84.9602 216.136 85.1997 216.261 85.5055C216.386 85.8095 216.424 86.0896 216.424 86.3H208.424ZM210.307 90.6096C211.486 91.6578 212.916 92.0567 214.02 92.2311L215.268 84.3289C215.1 84.3024 215.064 84.2811 215.117 84.302C215.17 84.323 215.374 84.4104 215.622 84.6304L210.307 90.6096ZM213.969 92.2227L220.629 93.3627L221.979 85.4773L215.319 84.3373L213.969 92.2227ZM220.687 93.372C222.696 93.686 223.772 94.3047 224.356 94.8884L230.013 89.2316C227.876 87.0953 225.032 85.954 221.922 85.468L220.687 93.372ZM224.44 94.9704C224.891 95.3953 225.284 96.0607 225.284 97.46H233.284C233.284 94.2993 232.277 91.3647 229.928 89.1496L224.44 94.9704ZM225.284 97.46C225.284 99.5051 224.59 100.785 223.215 101.783L227.914 108.257C231.498 105.655 233.284 101.895 233.284 97.46H225.284ZM223.249 101.758C221.648 102.894 219.243 103.66 215.664 103.66V111.66C220.325 111.66 224.52 110.666 227.879 108.282L223.249 101.758ZM239.37 107.24L239.971 103.286L239.935 103.28L239.898 103.275L239.37 107.24ZM234.45 105.86L236.12 102.225L236.029 102.183L235.935 102.146L234.45 105.86ZM232.29 104.24L228.842 106.268L228.885 106.341L228.931 106.413L232.29 104.24ZM231.69 102.08L227.695 101.87L227.69 101.975V102.08H231.69ZM232.35 100.04L229.054 97.7739L229.037 97.7974L229.022 97.8212L232.35 100.04ZM234.03 98.72L235.361 102.492L235.421 102.471L235.48 102.448L234.03 98.72ZM236.43 98.78L235.063 102.539L235.074 102.543L235.084 102.547L236.43 98.78ZM240.93 100.1L240.1 104.013L240.167 104.027L240.235 104.039L240.93 100.1ZM248.01 99.86L250.13 103.252L250.204 103.206L250.276 103.156L248.01 99.86ZM248.31 96.8L245.811 99.9235L245.883 99.9809L245.957 100.035L248.31 96.8ZM246.57 96.14L245.929 100.088L245.938 100.09L245.946 100.091L246.57 96.14ZM239.91 95.06L239.211 98.9985L239.24 99.0037L239.269 99.0084L239.91 95.06ZM234.15 92.36L231.281 95.1471L231.301 95.1679L231.321 95.1884L234.15 92.36ZM233.85 81.56L230.71 79.0814L230.702 79.0925L233.85 81.56ZM238.71 78.08L240.17 81.8039L240.189 81.7965L240.208 81.789L238.71 78.08ZM250.77 77.24L250.026 81.1703L250.078 81.18L250.129 81.1884L250.77 77.24ZM255.09 78.62L253.342 82.218L253.457 82.2738L253.575 82.3222L255.09 78.62ZM256.95 80.18L260.485 78.3085V78.3084L256.95 80.18ZM257.37 82.34L261.345 82.7817L261.347 82.7702L261.348 82.7587L257.37 82.34ZM256.59 84.38L253.294 82.1139L253.277 82.1374L253.262 82.1612L256.59 84.38ZM254.91 85.64L255.98 89.4941L256.078 89.4669L256.175 89.4347L254.91 85.64ZM252.39 85.46L250.924 89.1816L251.023 89.2209L251.125 89.2547L252.39 85.46ZM248.85 84.32L247.916 88.2095L247.933 88.2136L247.95 88.2176L248.85 84.32ZM242.55 84.62L240.377 81.2617V81.2617L242.55 84.62ZM242.07 87.62L239.241 90.4484L239.324 90.5315L239.412 90.6096L242.07 87.62ZM243.75 88.28L244.425 84.3373L244.399 84.333L244.374 84.3289L243.75 88.28ZM250.41 89.42L249.735 93.3627L249.764 93.3676L249.792 93.372L250.41 89.42ZM256.29 92.06L253.461 94.8884L253.503 94.93L253.546 94.9704L256.29 92.06ZM254.67 105.02L256.985 108.282L257.002 108.27L257.019 108.257L254.67 105.02ZM244.77 103.66C243.222 103.66 241.624 103.537 239.971 103.286L238.768 111.194C240.796 111.503 242.797 111.66 244.77 111.66V103.66ZM239.898 103.275C238.448 103.082 237.199 102.721 236.12 102.225L232.78 109.495C234.661 110.359 236.691 110.918 238.841 111.205L239.898 103.275ZM235.935 102.146C235.7 102.052 235.59 101.978 235.56 101.955C235.535 101.937 235.585 101.969 235.648 102.067L228.931 106.413C229.948 107.984 231.446 108.967 232.964 109.574L235.935 102.146ZM235.737 102.212C235.704 102.155 235.696 102.126 235.694 102.119C235.692 102.114 235.69 102.104 235.69 102.08H227.69C227.69 103.581 228.095 104.998 228.842 106.268L235.737 102.212ZM235.684 102.29C235.686 102.261 235.688 102.244 235.69 102.236C235.691 102.228 235.692 102.227 235.691 102.231C235.689 102.236 235.687 102.242 235.683 102.249C235.68 102.255 235.678 102.259 235.678 102.259L229.022 97.8212C228.201 99.0523 227.771 100.434 227.695 101.87L235.684 102.29ZM235.646 102.306C235.658 102.289 235.636 102.324 235.571 102.375C235.503 102.428 235.427 102.469 235.361 102.492L232.698 94.948C231.158 95.4917 229.934 96.4936 229.054 97.7739L235.646 102.306ZM235.48 102.448C235.328 102.507 235.18 102.527 235.07 102.524C234.971 102.521 234.962 102.502 235.063 102.539L237.797 95.0208C236.207 94.4429 234.386 94.2895 232.58 94.992L235.48 102.448ZM235.084 102.547C236.883 103.189 238.56 103.686 240.1 104.013L241.76 96.1871C240.66 95.9538 239.337 95.5708 237.775 95.013L235.084 102.547ZM240.235 104.039C241.799 104.315 243.332 104.46 244.83 104.46V96.46C243.847 96.46 242.781 96.3649 241.625 96.1609L240.235 104.039ZM244.83 104.46C246.462 104.46 248.489 104.278 250.13 103.252L245.89 96.468C246.131 96.3171 246.227 96.3352 245.993 96.3794C245.779 96.4198 245.406 96.46 244.83 96.46V104.46ZM250.276 103.156C251.822 102.093 252.97 100.38 252.97 98.18H244.97C244.97 97.8631 245.052 97.483 245.257 97.1254C245.45 96.7872 245.668 96.6161 245.744 96.5638L250.276 103.156ZM252.97 98.18C252.97 96.4529 252.255 94.7232 250.662 93.5651L245.957 100.035C245.677 99.831 245.392 99.5204 245.196 99.1108C245.007 98.7149 244.97 98.3725 244.97 98.18H252.97ZM250.809 93.6765C249.66 92.7578 248.321 92.367 247.194 92.1889L245.946 100.091C246.116 100.118 246.176 100.142 246.156 100.135C246.136 100.127 245.997 100.072 245.811 99.9235L250.809 93.6765ZM247.21 92.1916L240.55 91.1116L239.269 99.0084L245.929 100.088L247.21 92.1916ZM240.608 91.1215C238.688 90.7807 237.603 90.1567 236.978 89.5316L231.321 95.1884C233.416 97.2833 236.172 98.4593 239.211 98.9985L240.608 91.1215ZM237.019 89.5729C236.492 89.0306 236.11 88.2652 236.11 86.9H228.11C228.11 90.0148 229.087 92.8894 231.281 95.1471L237.019 89.5729ZM236.11 86.9C236.11 85.614 236.449 84.7281 236.998 84.0275L230.702 79.0925C228.931 81.3519 228.11 84.026 228.11 86.9H236.11ZM236.989 84.0386C237.694 83.1454 238.702 82.3797 240.17 81.8039L237.249 74.3561C234.638 75.3803 232.405 76.9346 230.71 79.0814L236.989 84.0386ZM240.208 81.789C241.729 81.1747 243.585 80.82 245.85 80.82V72.82C242.754 72.82 239.851 73.3053 237.212 74.371L240.208 81.789ZM245.85 80.82C247.447 80.82 248.833 80.9446 250.026 81.1703L251.513 73.3097C249.746 72.9754 247.853 72.82 245.85 72.82V80.82ZM250.129 81.1884C251.211 81.3638 252.279 81.7016 253.342 82.218L256.837 75.022C255.101 74.1784 253.289 73.5962 251.41 73.2916L250.129 81.1884ZM253.575 82.3222C253.698 82.3723 253.701 82.3923 253.644 82.3448C253.616 82.3207 253.576 82.2829 253.533 82.2301C253.489 82.177 253.449 82.1166 253.415 82.0516L260.485 78.3084C259.59 76.619 258.14 75.5462 256.604 74.9178L253.575 82.3222ZM253.415 82.0515C253.418 82.0579 253.416 82.0548 253.412 82.0428C253.407 82.0307 253.402 82.0138 253.398 81.9935C253.394 81.9731 253.392 81.9545 253.392 81.9395C253.391 81.9247 253.392 81.918 253.392 81.9213L261.348 82.7587C261.512 81.2025 261.214 79.6858 260.485 78.3085L253.415 82.0515ZM253.394 81.8983C253.392 81.9166 253.388 81.9765 253.294 82.1139L259.886 86.6461C260.671 85.5035 261.187 84.2034 261.345 82.7817L253.394 81.8983ZM253.262 82.1612C253.305 82.0954 253.376 82.0153 253.47 81.945C253.561 81.8762 253.631 81.8498 253.645 81.8453L256.175 89.4347C257.691 88.9293 258.997 87.9795 259.918 86.5988L253.262 82.1612ZM253.839 81.7859C253.972 81.749 254.046 81.7567 254.025 81.7552C253.997 81.7532 253.879 81.74 253.655 81.6653L251.125 89.2547C252.579 89.7395 254.265 89.9705 255.98 89.4941L253.839 81.7859ZM253.856 81.7384C252.408 81.1678 251.033 80.7187 249.749 80.4224L247.95 88.2176C248.746 88.4013 249.732 88.7122 250.924 89.1816L253.856 81.7384ZM249.783 80.4305C248.527 80.1291 247.272 79.96 246.03 79.96V87.96C246.548 87.96 247.172 88.0309 247.916 88.2095L249.783 80.4305ZM246.03 79.96C244.266 79.96 242.09 80.1529 240.377 81.2617L244.723 87.9783C244.477 88.137 244.391 88.1089 244.675 88.0549C244.935 88.0056 245.371 87.96 246.03 87.96V79.96ZM240.377 81.2617C238.81 82.2757 237.53 83.988 237.53 86.3H245.53C245.53 86.663 245.429 87.0757 245.204 87.4459C244.995 87.7892 244.772 87.9461 244.723 87.9783L240.377 81.2617ZM237.53 86.3C237.53 87.8554 238.113 89.3205 239.241 90.4484L244.898 84.7916C245.067 84.9602 245.242 85.1997 245.367 85.5055C245.491 85.8095 245.53 86.0896 245.53 86.3H237.53ZM239.412 90.6096C240.591 91.6578 242.021 92.0567 243.126 92.2311L244.374 84.3289C244.205 84.3024 244.169 84.2811 244.222 84.302C244.276 84.323 244.48 84.4104 244.727 84.6304L239.412 90.6096ZM243.075 92.2227L249.735 93.3627L251.085 85.4773L244.425 84.3373L243.075 92.2227ZM249.792 93.372C251.802 93.686 252.878 94.3047 253.461 94.8884L259.118 89.2316C256.982 87.0953 254.138 85.954 251.027 85.468L249.792 93.372ZM253.546 94.9704C253.996 95.3953 254.39 96.0607 254.39 97.46H262.39C262.39 94.2993 261.383 91.3647 259.034 89.1496L253.546 94.9704ZM254.39 97.46C254.39 99.5051 253.696 100.785 252.32 101.783L257.019 108.257C260.604 105.655 262.39 101.895 262.39 97.46H254.39ZM252.355 101.758C250.754 102.894 248.349 103.66 244.77 103.66V111.66C249.43 111.66 253.626 110.666 256.985 108.282L252.355 101.758ZM274.235 106.1L271.35 108.87L271.378 108.9L271.407 108.928L274.235 106.1ZM272.795 73.7H276.795V69.7H272.795V73.7ZM259.955 72.56L257.055 75.315L257.126 75.3894L257.2 75.46L259.955 72.56ZM259.955 65.84L257.2 62.94L257.163 62.9753L257.127 63.0116L259.955 65.84ZM296.615 65.84L293.787 68.6684L293.823 68.7047L293.86 68.74L296.615 65.84ZM296.615 72.56L299.444 75.3884V75.3884L296.615 72.56ZM283.835 73.7V69.7H279.835V73.7H283.835ZM282.455 106.1L285.343 108.868L285.371 108.838L285.399 108.808L282.455 106.1ZM278.315 103.54C277.288 103.54 277.07 103.278 277.064 103.272L271.407 108.928C273.321 110.842 275.823 111.54 278.315 111.54V103.54ZM277.121 103.33C277.055 103.261 276.795 102.978 276.795 101.96H268.795C268.795 104.462 269.496 106.939 271.35 108.87L277.121 103.33ZM276.795 101.96V73.7H268.795V101.96H276.795ZM272.795 69.7H263.375V77.7H272.795V69.7ZM263.375 69.7C262.97 69.7 262.756 69.647 262.675 69.6203C262.611 69.599 262.648 69.6012 262.71 69.66L257.2 75.46C258.968 77.1393 261.228 77.7 263.375 77.7V69.7ZM262.855 69.805C262.902 69.8545 262.906 69.8865 262.888 69.8348C262.865 69.7675 262.815 69.5747 262.815 69.2H254.815C254.815 71.3424 255.394 73.5665 257.055 75.315L262.855 69.805ZM262.815 69.2C262.815 68.792 262.869 68.5922 262.888 68.5352C262.901 68.4972 262.88 68.5723 262.784 68.6684L257.127 63.0116C255.37 64.7681 254.815 67.0675 254.815 69.2H262.815ZM262.71 68.74C262.648 68.7988 262.611 68.801 262.675 68.7797C262.756 68.753 262.97 68.7 263.375 68.7V60.7C261.228 60.7 258.968 61.2607 257.2 62.94L262.71 68.74ZM263.375 68.7H293.255V60.7H263.375V68.7ZM293.255 68.7C293.663 68.7 293.863 68.7536 293.92 68.7729C293.958 68.7858 293.883 68.7646 293.787 68.6684L299.444 63.0116C297.687 61.255 295.388 60.7 293.255 60.7V68.7ZM293.86 68.74C293.823 68.7043 293.791 68.6651 293.769 68.6296C293.747 68.5952 293.743 68.5796 293.748 68.5953C293.762 68.6327 293.815 68.8108 293.815 69.2H301.815C301.815 67.0124 301.209 64.6867 299.37 62.94L293.86 68.74ZM293.815 69.2C293.815 69.5552 293.766 69.7266 293.748 69.7747C293.737 69.8062 293.747 69.7718 293.787 69.7316L299.444 75.3884C301.184 73.6477 301.815 71.397 301.815 69.2H293.815ZM293.787 69.7316C293.883 69.6354 293.958 69.6142 293.92 69.6271C293.863 69.6464 293.663 69.7 293.255 69.7V77.7C295.388 77.7 297.687 77.145 299.444 75.3884L293.787 69.7316ZM293.255 69.7H283.835V77.7H293.255V69.7ZM279.835 73.7V101.96H287.835V73.7H279.835ZM279.835 101.96C279.835 103.022 279.571 103.328 279.512 103.392L285.399 108.808C287.18 106.872 287.835 104.418 287.835 101.96H279.835ZM279.567 103.332C279.587 103.312 279.569 103.349 279.416 103.402C279.242 103.463 278.899 103.54 278.315 103.54V111.54C280.816 111.54 283.416 110.879 285.343 108.868L279.567 103.332ZM299.523 106.4L297.767 109.994L297.783 110.002L297.8 110.01L299.523 106.4ZM295.443 102.98L292.087 105.157L292.121 105.21L292.157 105.262L295.443 102.98ZM301.083 90.2L301.903 94.1149L301.934 94.1085L301.964 94.1018L301.083 90.2ZM314.283 89.36H318.283V85.36H314.283V89.36ZM314.283 94.4V98.4H318.283V94.4H314.283ZM307.083 94.76L307.867 98.6823L307.925 98.6708L307.982 98.6576L307.083 94.76ZM304.863 95.78L307.565 98.7286L307.63 98.6699L307.691 98.6084L304.863 95.78ZM305.103 99.8L302.367 102.718L302.411 102.759L302.456 102.799L305.103 99.8ZM310.623 100.04L308.695 96.5351L308.656 96.5563L308.618 96.5783L310.623 100.04ZM312.543 98.24L315.924 100.376L315.949 100.337L315.973 100.298L312.543 98.24ZM312.123 85.46L309.562 88.5329L309.602 88.5667L309.644 88.5995L312.123 85.46ZM305.103 84.92L305.76 88.8656L305.824 88.855L305.887 88.8423L305.103 84.92ZM301.083 86.06L302.472 89.811L302.485 89.8061L302.498 89.8011L301.083 86.06ZM296.523 84.8L293.075 86.8281L293.118 86.9015L293.164 86.973L296.523 84.8ZM295.923 82.58L291.928 82.3802L291.923 82.4801V82.58H295.923ZM296.703 80.3L293.46 77.958L293.416 78.0188L293.374 78.0812L296.703 80.3ZM299.043 78.62L297.638 74.8747L297.622 74.8806L297.607 74.8866L299.043 78.62ZM304.323 77.18L303.743 73.2222L303.736 73.2232L303.729 73.2243L304.323 77.18ZM316.923 78.26L315.273 81.9038L315.314 81.9224L315.355 81.9401L316.923 78.26ZM321.723 82.58L318.189 84.4549L318.212 84.4982L318.236 84.541L321.723 82.58ZM322.083 106.16L319.129 103.463L322.083 106.16ZM314.643 106.16L311.689 108.857L311.72 108.891L311.752 108.925L314.643 106.16ZM313.383 100.58L317.059 99.0043L309.383 100.58H313.383ZM313.743 101.42L317.695 102.038L317.872 100.901L317.419 99.8443L313.743 101.42ZM312.363 104.72L315.513 107.185V107.185L312.363 104.72ZM309.543 106.88L307.906 103.23L309.543 106.88ZM305.583 103.66C303.798 103.66 302.384 103.333 301.245 102.79L297.8 110.01C300.181 111.147 302.807 111.66 305.583 111.66V103.66ZM301.278 102.806C300.114 102.237 299.303 101.527 298.728 100.698L292.157 105.262C293.582 107.313 295.491 108.883 297.767 109.994L301.278 102.806ZM298.798 100.803C298.287 100.015 298.003 99.1006 298.003 97.94H290.003C290.003 100.539 290.678 102.985 292.087 105.157L298.798 100.803ZM298.003 97.94C298.003 96.4724 298.371 95.8312 298.651 95.5211L292.714 90.1589C290.754 92.3288 290.003 95.0876 290.003 97.94H298.003ZM298.651 95.5211C298.979 95.1583 299.848 94.5458 301.903 94.1149L300.262 86.2851C297.357 86.8942 294.626 88.0417 292.714 90.1589L298.651 95.5211ZM301.964 94.1018C304.033 93.6346 307.001 93.36 310.983 93.36V85.36C306.725 85.36 303.092 85.6454 300.202 86.2982L301.964 94.1018ZM310.983 93.36H314.283V85.36H310.983V93.36ZM310.283 89.36V94.4H318.283V89.36H310.283ZM314.283 90.4H310.983V98.4H314.283V90.4ZM310.983 90.4C309.245 90.4 307.619 90.531 306.183 90.8624L307.982 98.6576C308.626 98.509 309.6 98.4 310.983 98.4V90.4ZM306.298 90.8377C304.888 91.1196 303.288 91.6981 302.034 92.9516L307.691 98.6084C307.536 98.7632 307.425 98.8102 307.448 98.7997C307.458 98.7949 307.496 98.7786 307.567 98.7565C307.638 98.7344 307.737 98.7084 307.867 98.6823L306.298 90.8377ZM302.16 92.8314C300.761 94.1138 300.143 95.8107 300.143 97.52H308.143C308.143 97.6083 308.127 97.8134 308.019 98.0744C307.907 98.3447 307.74 98.5689 307.565 98.7286L302.16 92.8314ZM300.143 97.52C300.143 99.4851 300.877 101.321 302.367 102.718L307.838 96.8819C307.901 96.9405 307.998 97.0583 308.069 97.2278C308.139 97.393 308.143 97.5086 308.143 97.52H300.143ZM302.456 102.799C304.098 104.248 306.128 104.7 307.983 104.7V96.7C307.677 96.7 307.542 96.6621 307.526 96.6571C307.52 96.6554 307.545 96.6626 307.589 96.6871C307.635 96.7121 307.691 96.7494 307.749 96.8006L302.456 102.799ZM307.983 104.7C309.587 104.7 311.177 104.341 312.627 103.502L308.618 96.5783C308.548 96.619 308.378 96.7 307.983 96.7V104.7ZM312.55 103.545C313.933 102.784 315.077 101.717 315.924 100.376L309.161 96.104C309.048 96.2828 308.912 96.4158 308.695 96.5351L312.55 103.545ZM315.973 100.298C316.867 98.8069 317.263 97.1596 317.263 95.48H309.263C309.263 95.8804 309.178 96.0731 309.113 96.182L315.973 100.298ZM317.263 95.48V88.52H309.263V95.48H317.263ZM317.263 88.52C317.263 86.4705 316.719 83.9921 314.601 82.3205L309.644 88.5995C309.524 88.5046 309.425 88.3969 309.35 88.2907C309.277 88.1869 309.242 88.1061 309.229 88.0714C309.217 88.039 309.226 88.0527 309.238 88.1294C309.25 88.2064 309.263 88.3335 309.263 88.52H317.263ZM314.683 82.3871C312.828 80.841 310.334 80.56 308.343 80.56V88.56C309.042 88.56 309.476 88.6204 309.711 88.6762C309.957 88.7348 309.822 88.7494 309.562 88.5329L314.683 82.3871ZM308.343 80.56C307.059 80.56 305.71 80.7193 304.318 80.9977L305.887 88.8423C306.895 88.6407 307.706 88.56 308.343 88.56V80.56ZM304.445 80.9744C302.923 81.2282 301.323 81.6921 299.667 82.3189L302.498 89.8011C303.802 89.3079 304.883 89.0118 305.76 88.8656L304.445 80.9744ZM299.693 82.309C299.565 82.3565 299.47 82.3833 299.406 82.398C299.342 82.4127 299.316 82.4139 299.322 82.4135C299.33 82.413 299.372 82.4109 299.442 82.4201C299.513 82.4294 299.604 82.4492 299.705 82.4866L296.94 89.9934C298.907 90.7183 300.87 90.4043 302.472 89.811L299.693 82.309ZM299.705 82.4866C299.704 82.486 299.714 82.4899 299.734 82.5007C299.754 82.5117 299.777 82.527 299.801 82.5465C299.826 82.566 299.846 82.5855 299.861 82.6023C299.876 82.6189 299.882 82.6285 299.881 82.627L293.164 86.973C294.074 88.3796 295.368 89.4142 296.94 89.9934L299.705 82.4866ZM299.97 82.7719C299.937 82.7156 299.923 82.6774 299.923 82.58H291.923C291.923 84.0826 292.308 85.5244 293.075 86.8281L299.97 82.7719ZM299.918 82.7798C299.919 82.7583 299.918 82.6882 300.031 82.5188L293.374 78.0812C292.527 79.3518 292.006 80.8017 291.928 82.3802L299.918 82.7798ZM299.945 82.642C299.908 82.6941 299.979 82.5455 300.478 82.3534L297.607 74.8866C296.026 75.4944 294.538 76.4659 293.46 77.958L299.945 82.642ZM300.447 82.3653C302.171 81.7189 303.655 81.3249 304.916 81.1357L303.729 73.2243C301.79 73.5151 299.754 74.0811 297.638 74.8747L300.447 82.3653ZM304.902 81.1378C306.39 80.9201 307.693 80.82 308.823 80.82V72.82C307.232 72.82 305.535 72.9599 303.743 73.2222L304.902 81.1378ZM308.823 80.82C311.75 80.82 313.838 81.2541 315.273 81.9038L318.573 74.6162C315.767 73.3459 312.455 72.82 308.823 72.82V80.82ZM315.355 81.9401C316.725 82.5236 317.605 83.3532 318.189 84.4549L325.256 80.7051C323.761 77.8868 321.44 75.8364 318.49 74.5799L315.355 81.9401ZM318.236 84.541C318.876 85.6775 319.343 87.4182 319.343 90.02H327.343C327.343 86.5418 326.73 83.3225 325.209 80.619L318.236 84.541ZM319.343 90.02V102.14H327.343V90.02H319.343ZM319.343 102.14C319.343 103.313 319.062 103.536 319.129 103.463L325.036 108.857C326.783 106.944 327.343 104.487 327.343 102.14H319.343ZM319.129 103.463C319.153 103.436 319.175 103.434 319.126 103.452C319.057 103.478 318.846 103.54 318.423 103.54V111.54C320.807 111.54 323.237 110.828 325.036 108.857L319.129 103.463ZM318.423 103.54C317.97 103.54 317.724 103.476 317.619 103.438C317.569 103.419 317.546 103.405 317.542 103.402C317.538 103.399 317.536 103.399 317.533 103.395L311.752 108.925C313.588 110.845 316.022 111.54 318.423 111.54V103.54ZM317.596 103.463C317.663 103.536 317.383 103.313 317.383 102.14H309.383C309.383 104.487 309.942 106.944 311.689 108.857L317.596 103.463ZM317.383 102.14V100.58H309.383V102.14H317.383ZM309.706 102.156L310.066 102.996L317.419 99.8443L317.059 99.0043L309.706 102.156ZM309.79 100.802C309.684 101.483 309.467 101.929 309.213 102.255L315.513 107.185C316.698 105.671 317.401 103.917 317.695 102.038L309.79 100.802ZM309.213 102.255C308.928 102.618 308.526 102.952 307.906 103.23L311.179 110.53C312.879 109.768 314.357 108.662 315.513 107.185L309.213 102.255ZM307.906 103.23C307.339 103.484 306.59 103.66 305.583 103.66V111.66C307.535 111.66 309.426 111.316 311.179 110.53L307.906 103.23ZM331.464 104.6L328.439 107.218L328.466 107.249L328.494 107.279L331.464 104.6ZM338.004 65.54L335.176 68.3684L335.206 68.3985L335.236 68.4279L338.004 65.54ZM340.284 98.12L337.196 100.663L337.24 100.715L337.285 100.766L340.284 98.12ZM343.404 99.08L343.97 103.04L344.174 103.011L344.374 102.961L343.404 99.08ZM344.424 98.9V94.9H344.203L343.982 94.9245L344.424 98.9ZM345.924 99.68L342.517 101.776L342.574 101.868L342.635 101.957L345.924 99.68ZM345.624 106.04L348.712 108.583L348.747 108.54L348.782 108.496L345.624 106.04ZM343.044 107.36L343.54 111.329L343.632 111.318L343.724 111.302L343.044 107.36ZM341.664 107.54L342.193 111.505L341.664 107.54ZM339.984 103.66C336.812 103.66 335.252 102.828 334.434 101.921L328.494 107.279C331.356 110.452 335.477 111.66 339.984 111.66V103.66ZM334.489 101.982C333.571 100.922 332.764 98.9138 332.764 95.24H324.764C324.764 99.8862 325.757 104.118 328.439 107.218L334.489 101.982ZM332.764 95.24V69.56H324.764V95.24H332.764ZM332.764 69.56C332.764 69.0192 332.836 68.6986 332.892 68.5337C332.92 68.4542 332.943 68.4114 332.954 68.3933C332.965 68.3763 332.97 68.3706 332.973 68.3684L327.316 62.7116C325.411 64.6158 324.764 67.1237 324.764 69.56H332.764ZM332.973 68.3684C332.986 68.3551 333.021 68.3192 333.143 68.2759C333.283 68.2265 333.563 68.16 334.044 68.16V60.16C331.626 60.16 329.187 60.8404 327.316 62.7116L332.973 68.3684ZM334.044 68.16C334.555 68.16 334.856 68.2292 335.008 68.2822C335.142 68.3289 335.173 68.3657 335.176 68.3684L340.833 62.7116C338.945 60.8236 336.471 60.16 334.044 60.16V68.16ZM335.236 68.4279C335.238 68.4293 335.272 68.4552 335.318 68.5839C335.372 68.7324 335.444 69.0351 335.444 69.56H343.444C343.444 67.0776 342.75 64.548 340.772 62.652L335.236 68.4279ZM335.444 69.56V94.88H343.444V69.56H335.444ZM335.444 94.88C335.444 96.709 335.761 98.9203 337.196 100.663L343.372 95.5772C343.547 95.7901 343.558 95.9177 343.526 95.7962C343.494 95.6706 343.444 95.3843 343.444 94.88H335.444ZM337.285 100.766C338.657 102.321 340.516 103.14 342.564 103.14V95.14C342.608 95.14 342.752 95.1507 342.938 95.2337C343.125 95.3174 343.239 95.4235 343.283 95.4735L337.285 100.766ZM342.564 103.14C343.035 103.14 343.504 103.106 343.97 103.04L342.838 95.1202C342.744 95.1337 342.653 95.14 342.564 95.14V103.14ZM344.374 102.961C344.505 102.928 344.667 102.898 344.866 102.876L343.982 94.9245C343.461 94.9823 342.944 95.072 342.434 95.1994L344.374 102.961ZM344.424 102.9C344.253 102.9 343.89 102.866 343.464 102.644C343.018 102.412 342.704 102.08 342.517 101.776L349.331 97.5836C348.189 95.7285 346.305 94.9 344.424 94.9V102.9ZM342.635 101.957C342.461 101.705 342.391 101.512 342.375 101.465C342.357 101.411 342.367 101.425 342.386 101.535C342.425 101.765 342.464 102.187 342.464 102.86H350.464C350.464 101.933 350.414 101.025 350.273 100.195C350.144 99.4381 349.882 98.3694 349.213 97.4032L342.635 101.957ZM342.464 102.86C342.464 103.305 342.418 103.564 342.387 103.683C342.357 103.795 342.356 103.726 342.467 103.584L348.782 108.496C350.111 106.786 350.464 104.699 350.464 102.86H342.464ZM342.536 103.497C342.583 103.441 342.63 103.397 342.671 103.364C342.711 103.333 342.736 103.319 342.737 103.319C342.737 103.319 342.711 103.332 342.65 103.352C342.588 103.371 342.495 103.396 342.364 103.418L343.724 111.302C345.507 110.994 347.363 110.22 348.712 108.583L342.536 103.497ZM342.548 103.391C342.212 103.433 341.739 103.495 341.135 103.575L342.193 111.505C342.79 111.425 343.237 111.367 343.54 111.329L342.548 103.391ZM341.135 103.575C340.683 103.635 340.301 103.66 339.984 103.66V111.66C340.707 111.66 341.445 111.605 342.193 111.505L341.135 103.575ZM350.343 106.16L353.172 103.332L350.343 106.16ZM358.203 65.54L355.375 68.3684L355.405 68.3985L355.436 68.4279L358.203 65.54ZM359.643 89.36H355.643V93.36H359.643V89.36ZM359.763 89.36V93.36H361.65L362.85 91.9043L359.763 89.36ZM367.083 80.48L364.011 77.9193L364.004 77.9275L363.997 77.9357L367.083 80.48ZM369.843 77.84L372.062 81.1682L372.08 81.1566L372.097 81.1449L369.843 77.84ZM376.803 78.02L374.128 80.9932L376.803 78.02ZM378.063 80.72L374.066 80.868V80.8681L378.063 80.72ZM376.743 83.96L373.698 81.3661L373.69 81.3762L376.743 83.96ZM368.823 93.32H364.823V104.24L371.877 95.9038L368.823 93.32ZM368.823 89.6L371.954 87.1094L364.823 78.1487V89.6H368.823ZM377.703 100.76L380.849 98.2887L380.841 98.2791L380.833 98.2694L377.703 100.76ZM378.783 104.06L382.737 104.668L382.739 104.657L382.74 104.646L378.783 104.06ZM377.223 106.58L374.871 103.345L374.835 103.371L374.799 103.398L377.223 106.58ZM370.143 106.7L368.023 110.092L368.075 110.124L368.128 110.155L370.143 106.7ZM367.263 103.94L370.426 101.491L370.398 101.455L370.369 101.419L367.263 103.94ZM359.763 94.7L362.869 92.1791L361.669 90.7H359.763V94.7ZM359.643 94.7V90.7H355.643V94.7H359.643ZM354.243 103.54C353.762 103.54 353.482 103.473 353.343 103.424C353.22 103.381 353.185 103.345 353.172 103.332L347.515 108.988C349.386 110.86 351.825 111.54 354.243 111.54V103.54ZM353.172 103.332C353.17 103.329 353.164 103.324 353.154 103.307C353.143 103.289 353.119 103.246 353.092 103.166C353.035 103.001 352.963 102.681 352.963 102.14H344.963C344.963 104.576 345.611 107.084 347.515 108.988L353.172 103.332ZM352.963 102.14V69.56H344.963V102.14H352.963ZM352.963 69.56C352.963 69.0192 353.035 68.6986 353.092 68.5337C353.119 68.4542 353.143 68.4114 353.154 68.3933C353.164 68.3763 353.17 68.3706 353.172 68.3684L347.515 62.7116C345.611 64.6158 344.963 67.1237 344.963 69.56H352.963ZM353.172 68.3684C353.185 68.3551 353.22 68.3192 353.343 68.2759C353.482 68.2265 353.762 68.16 354.243 68.16V60.16C351.825 60.16 349.386 60.8404 347.515 62.7116L353.172 68.3684ZM354.243 68.16C354.755 68.16 355.055 68.2292 355.207 68.2822C355.341 68.3289 355.372 68.3657 355.375 68.3684L361.032 62.7116C359.144 60.8236 356.67 60.16 354.243 60.16V68.16ZM355.436 68.4279C355.437 68.4293 355.472 68.4552 355.518 68.5839C355.571 68.7324 355.643 69.0351 355.643 69.56H363.643C363.643 67.0776 362.949 64.548 360.971 62.652L355.436 68.4279ZM355.643 69.56V89.36H363.643V69.56H355.643ZM359.643 93.36H359.763V85.36H359.643V93.36ZM362.85 91.9043L370.17 83.0243L363.997 77.9357L356.677 86.8157L362.85 91.9043ZM370.156 83.0407C371.029 81.9935 371.667 81.4317 372.062 81.1682L367.625 74.5118C366.34 75.3683 365.138 76.5665 364.011 77.9193L370.156 83.0407ZM372.097 81.1449C372.1 81.1428 372.404 80.94 373.383 80.94V72.94C371.403 72.94 369.347 73.3372 367.59 74.5351L372.097 81.1449ZM373.383 80.94C373.808 80.94 374.043 80.9926 374.144 81.0243C374.23 81.0514 374.197 81.0559 374.128 80.9932L379.479 75.0468C377.708 73.4528 375.479 72.94 373.383 72.94V80.94ZM374.128 80.9932C374.148 81.0118 374.148 81.0149 374.137 81.0001C374.125 80.9846 374.109 80.9594 374.094 80.9265C374.078 80.8937 374.07 80.8659 374.066 80.8489C374.062 80.8327 374.065 80.8371 374.066 80.868L382.061 80.572C381.981 78.4153 381.088 76.4943 379.479 75.0468L374.128 80.9932ZM374.066 80.8681C374.064 80.7974 374.082 80.7741 374.059 80.8308C374.03 80.9018 373.94 81.0826 373.699 81.3661L379.788 86.5539C381.15 84.9559 382.148 82.9333 382.061 80.5719L374.066 80.8681ZM373.69 81.3762L365.77 90.7362L371.877 95.9038L379.797 86.5438L373.69 81.3762ZM372.823 93.32V89.6H364.823V93.32H372.823ZM365.693 92.0906L374.573 103.251L380.833 98.2694L371.954 87.1094L365.693 92.0906ZM374.558 103.231C374.774 103.506 374.826 103.653 374.832 103.669C374.834 103.675 374.827 103.655 374.823 103.612C374.819 103.568 374.82 103.52 374.827 103.474L382.74 104.646C383.107 102.174 382.191 99.9966 380.849 98.2887L374.558 103.231ZM374.83 103.452C374.827 103.469 374.827 103.463 374.834 103.442C374.842 103.42 374.855 103.393 374.872 103.365C374.89 103.337 374.904 103.32 374.91 103.314C374.915 103.308 374.905 103.32 374.871 103.345L379.576 109.815C381.286 108.572 382.409 106.802 382.737 104.668L374.83 103.452ZM374.799 103.398C374.79 103.405 374.753 103.433 374.647 103.465C374.533 103.499 374.323 103.54 373.983 103.54V111.54C375.957 111.54 377.952 111.053 379.648 109.762L374.799 103.398ZM373.983 103.54C372.799 103.54 372.296 103.325 372.159 103.245L368.128 110.155C369.911 111.195 371.968 111.54 373.983 111.54V103.54ZM372.263 103.308C371.826 103.034 371.201 102.491 370.426 101.491L364.101 106.389C365.246 107.869 366.541 109.166 368.023 110.092L372.263 103.308ZM370.369 101.419L362.869 92.1791L356.658 97.2209L364.158 106.461L370.369 101.419ZM359.763 90.7H359.643V98.7H359.763V90.7ZM355.643 94.7V102.14H363.643V94.7H355.643ZM355.643 102.14C355.643 103.323 355.35 103.476 355.465 103.362C355.58 103.247 355.427 103.54 354.243 103.54V111.54C356.66 111.54 359.207 110.933 361.122 109.018C363.037 107.104 363.643 104.557 363.643 102.14H355.643Z" fill="white" mask="url(#path-1-outside-1_658_37)"/>
<path d="M9.84033 38.1823L40.2702 64.2985L28.3631 73.9252L9.84033 38.1823Z" fill="#EAD300"/>
<ellipse cx="325.062" cy="43" rx="3" ry="4" fill="#9F00EA"/>
<circle cx="47.0615" cy="29" r="8" fill="#EAA900"/>
<rect width="7.49268" height="11.5577" transform="matrix(0.900462 -0.434935 0.366385 0.930463 342.372 41.0423)" fill="#EA0000"/>
<rect width="26.0625" height="8.85595" transform="matrix(-0.462059 -0.886849 0.898558 -0.438854 43.1035 52)" fill="#EA0000"/>
<path d="M1.06148 16.5537C1.06148 16.5537 15.4539 9.57787 18.7189 13.2342C20.5126 15.2429 21.8671 17.6758 20.2607 19.6525C19.0224 21.1762 17.2345 21.3704 15.1397 21.0124C10.7036 20.2543 10.7709 14.2595 12.5516 10.5467C15.0102 5.42058 28.0615 8.44627 28.0615 8.44627" stroke="#84E847" stroke-width="1.2"/>
<path d="M373.261 40C373.261 40 372.079 33.2525 375.472 31.9077C378.322 30.7778 380.793 35.7743 383.135 33.9629C385.507 32.128 379.585 29.2212 381.514 27.0265C383.544 24.7168 390.062 27.0265 390.062 27.0265" stroke="#005EEA" stroke-width="1.2"/>
<path d="M388.746 58.9587C391.842 56.3644 390.193 49.2993 393.087 52.7522C395.98 56.205 395.816 61.1072 392.721 63.7016C389.625 66.2959 384.77 65.5999 381.876 62.147C378.982 58.6941 385.65 61.553 388.746 58.9587Z" fill="#005EEA"/>
<path d="M352.562 10L355.368 18.6373H364.45L357.102 23.9754L359.909 32.6127L352.562 27.2746L345.214 32.6127L348.021 23.9754L340.673 18.6373H349.755L352.562 10Z" fill="#84E847"/>
<path d="M367.062 44L368.633 49.1824H373.719L369.604 52.3853L371.176 57.5676L367.062 54.3647L362.947 57.5676L364.519 52.3853L360.404 49.1824H365.49L367.062 44Z" fill="#EAD300"/>
<path d="M60.6705 51.1042L61.7447 41.2363L69.2328 46.2926L70.0863 38.0145L76.9166 43.026L79.0438 34.0767" stroke="#005EEA"/>
</svg>
